<svg xmlns="http://www.w3.org/2000/svg" viewBox="0 0 880 462" width="880" height="462" role="img" aria-label="The curriculum: 11 DSA topics, 1 problem committed so far, in Arrays.">
  <defs>
    <style>
      .paper   { fill: #14120F; }
      .ink     { fill: #F0EBE3; }
      .muted   { fill: #978F84; }
      .faint   { fill: #6F675C; }
      .accent  { fill: #D98466; }
      .rule-h  { stroke: #F0EBE3; }
      .rule-l  { stroke: #3A342C; }
      .dot-off { fill: none; stroke: #3A342C; stroke-width: 1; }
      .dot-on  { fill: #D98466; }
      .serif   { font-family: Georgia, 'Iowan Old Style', 'Palatino Linotype', Palatino, 'Times New Roman', Times, serif; }
      .sans    { font-family: 'Helvetica Neue', Helvetica, Arial, sans-serif; }
    </style>
  </defs>

  <rect class="paper" x="0" y="0" width="880" height="462"/>

  <!-- header -->
  <text class="sans muted" x="40"  y="32" font-size="10.5" letter-spacing="2.6">THE CURRICULUM</text>
  <text class="sans muted" x="840" y="32" font-size="10.5" letter-spacing="2.6" text-anchor="end">PROBLEMS COMMITTED</text>
  <line class="rule-h" x1="40" y1="44" x2="840" y2="44" stroke-width="1.5"/>

  <!-- 01 Arrays — active -->
  <text class="sans faint" x="40" y="79" font-size="9.5" letter-spacing="1">01</text>
  <text class="serif ink"  x="70" y="79" font-size="14.5">Arrays</text>
  <line class="rule-l" x1="230" y1="74" x2="645" y2="74" stroke-width="0.75" stroke-dasharray="1 4"/>
  <circle class="dot-on"  cx="655" cy="74" r="3.4"/>
  <circle class="dot-off" cx="670" cy="74" r="3.4"/>
  <circle class="dot-off" cx="685" cy="74" r="3.4"/>
  <circle class="dot-off" cx="700" cy="74" r="3.4"/>
  <circle class="dot-off" cx="715" cy="74" r="3.4"/>
  <circle class="dot-off" cx="730" cy="74" r="3.4"/>
  <circle class="dot-off" cx="745" cy="74" r="3.4"/>
  <circle class="dot-off" cx="760" cy="74" r="3.4"/>
  <circle class="dot-off" cx="775" cy="74" r="3.4"/>
  <circle class="dot-off" cx="790" cy="74" r="3.4"/>
  <text class="sans accent" x="840" y="79" font-size="11" text-anchor="end">1</text>

  <!-- 02 Strings -->
  <text class="sans faint"  x="40" y="111" font-size="9.5" letter-spacing="1">02</text>
  <text class="serif muted" x="70" y="111" font-size="14.5">Strings</text>
  <line class="rule-l" x1="230" y1="106" x2="645" y2="106" stroke-width="0.75" stroke-dasharray="1 4"/>
  <circle class="dot-off" cx="655" cy="106" r="3.4"/>
  <circle class="dot-off" cx="670" cy="106" r="3.4"/>
  <circle class="dot-off" cx="685" cy="106" r="3.4"/>
  <circle class="dot-off" cx="700" cy="106" r="3.4"/>
  <circle class="dot-off" cx="715" cy="106" r="3.4"/>
  <circle class="dot-off" cx="730" cy="106" r="3.4"/>
  <circle class="dot-off" cx="745" cy="106" r="3.4"/>
  <circle class="dot-off" cx="760" cy="106" r="3.4"/>
  <circle class="dot-off" cx="775" cy="106" r="3.4"/>
  <circle class="dot-off" cx="790" cy="106" r="3.4"/>
  <text class="sans faint" x="840" y="111" font-size="11" text-anchor="end">&#8212;</text>

  <!-- 03 Hashing -->
  <text class="sans faint"  x="40" y="143" font-size="9.5" letter-spacing="1">03</text>
  <text class="serif muted" x="70" y="143" font-size="14.5">Hashing</text>
  <line class="rule-l" x1="230" y1="138" x2="645" y2="138" stroke-width="0.75" stroke-dasharray="1 4"/>
  <circle class="dot-off" cx="655" cy="138" r="3.4"/>
  <circle class="dot-off" cx="670" cy="138" r="3.4"/>
  <circle class="dot-off" cx="685" cy="138" r="3.4"/>
  <circle class="dot-off" cx="700" cy="138" r="3.4"/>
  <circle class="dot-off" cx="715" cy="138" r="3.4"/>
  <circle class="dot-off" cx="730" cy="138" r="3.4"/>
  <circle class="dot-off" cx="745" cy="138" r="3.4"/>
  <circle class="dot-off" cx="760" cy="138" r="3.4"/>
  <circle class="dot-off" cx="775" cy="138" r="3.4"/>
  <circle class="dot-off" cx="790" cy="138" r="3.4"/>
  <text class="sans faint" x="840" y="143" font-size="11" text-anchor="end">&#8212;</text>

  <!-- 04 Two Pointers -->
  <text class="sans faint"  x="40" y="175" font-size="9.5" letter-spacing="1">04</text>
  <text class="serif muted" x="70" y="175" font-size="14.5">Two Pointers</text>
  <line class="rule-l" x1="230" y1="170" x2="645" y2="170" stroke-width="0.75" stroke-dasharray="1 4"/>
  <circle class="dot-off" cx="655" cy="170" r="3.4"/>
  <circle class="dot-off" cx="670" cy="170" r="3.4"/>
  <circle class="dot-off" cx="685" cy="170" r="3.4"/>
  <circle class="dot-off" cx="700" cy="170" r="3.4"/>
  <circle class="dot-off" cx="715" cy="170" r="3.4"/>
  <circle class="dot-off" cx="730" cy="170" r="3.4"/>
  <circle class="dot-off" cx="745" cy="170" r="3.4"/>
  <circle class="dot-off" cx="760" cy="170" r="3.4"/>
  <circle class="dot-off" cx="775" cy="170" r="3.4"/>
  <circle class="dot-off" cx="790" cy="170" r="3.4"/>
  <text class="sans faint" x="840" y="175" font-size="11" text-anchor="end">&#8212;</text>

  <!-- 05 Sliding Window -->
  <text class="sans faint"  x="40" y="207" font-size="9.5" letter-spacing="1">05</text>
  <text class="serif muted" x="70" y="207" font-size="14.5">Sliding Window</text>
  <line class="rule-l" x1="230" y1="202" x2="645" y2="202" stroke-width="0.75" stroke-dasharray="1 4"/>
  <circle class="dot-off" cx="655" cy="202" r="3.4"/>
  <circle class="dot-off" cx="670" cy="202" r="3.4"/>
  <circle class="dot-off" cx="685" cy="202" r="3.4"/>
  <circle class="dot-off" cx="700" cy="202" r="3.4"/>
  <circle class="dot-off" cx="715" cy="202" r="3.4"/>
  <circle class="dot-off" cx="730" cy="202" r="3.4"/>
  <circle class="dot-off" cx="745" cy="202" r="3.4"/>
  <circle class="dot-off" cx="760" cy="202" r="3.4"/>
  <circle class="dot-off" cx="775" cy="202" r="3.4"/>
  <circle class="dot-off" cx="790" cy="202" r="3.4"/>
  <text class="sans faint" x="840" y="207" font-size="11" text-anchor="end">&#8212;</text>

  <!-- 06 Binary Search -->
  <text class="sans faint"  x="40" y="239" font-size="9.5" letter-spacing="1">06</text>
  <text class="serif muted" x="70" y="239" font-size="14.5">Binary Search</text>
  <line class="rule-l" x1="230" y1="234" x2="645" y2="234" stroke-width="0.75" stroke-dasharray="1 4"/>
  <circle class="dot-off" cx="655" cy="234" r="3.4"/>
  <circle class="dot-off" cx="670" cy="234" r="3.4"/>
  <circle class="dot-off" cx="685" cy="234" r="3.4"/>
  <circle class="dot-off" cx="700" cy="234" r="3.4"/>
  <circle class="dot-off" cx="715" cy="234" r="3.4"/>
  <circle class="dot-off" cx="730" cy="234" r="3.4"/>
  <circle class="dot-off" cx="745" cy="234" r="3.4"/>
  <circle class="dot-off" cx="760" cy="234" r="3.4"/>
  <circle class="dot-off" cx="775" cy="234" r="3.4"/>
  <circle class="dot-off" cx="790" cy="234" r="3.4"/>
  <text class="sans faint" x="840" y="239" font-size="11" text-anchor="end">&#8212;</text>

  <!-- 07 Stacks & Queues -->
  <text class="sans faint"  x="40" y="271" font-size="9.5" letter-spacing="1">07</text>
  <text class="serif muted" x="70" y="271" font-size="14.5">Stacks &amp; Queues</text>
  <line class="rule-l" x1="230" y1="266" x2="645" y2="266" stroke-width="0.75" stroke-dasharray="1 4"/>
  <circle class="dot-off" cx="655" cy="266" r="3.4"/>
  <circle class="dot-off" cx="670" cy="266" r="3.4"/>
  <circle class="dot-off" cx="685" cy="266" r="3.4"/>
  <circle class="dot-off" cx="700" cy="266" r="3.4"/>
  <circle class="dot-off" cx="715" cy="266" r="3.4"/>
  <circle class="dot-off" cx="730" cy="266" r="3.4"/>
  <circle class="dot-off" cx="745" cy="266" r="3.4"/>
  <circle class="dot-off" cx="760" cy="266" r="3.4"/>
  <circle class="dot-off" cx="775" cy="266" r="3.4"/>
  <circle class="dot-off" cx="790" cy="266" r="3.4"/>
  <text class="sans faint" x="840" y="271" font-size="11" text-anchor="end">&#8212;</text>

  <!-- 08 Linked Lists -->
  <text class="sans faint"  x="40" y="303" font-size="9.5" letter-spacing="1">08</text>
  <text class="serif muted" x="70" y="303" font-size="14.5">Linked Lists</text>
  <line class="rule-l" x1="230" y1="298" x2="645" y2="298" stroke-width="0.75" stroke-dasharray="1 4"/>
  <circle class="dot-off" cx="655" cy="298" r="3.4"/>
  <circle class="dot-off" cx="670" cy="298" r="3.4"/>
  <circle class="dot-off" cx="685" cy="298" r="3.4"/>
  <circle class="dot-off" cx="700" cy="298" r="3.4"/>
  <circle class="dot-off" cx="715" cy="298" r="3.4"/>
  <circle class="dot-off" cx="730" cy="298" r="3.4"/>
  <circle class="dot-off" cx="745" cy="298" r="3.4"/>
  <circle class="dot-off" cx="760" cy="298" r="3.4"/>
  <circle class="dot-off" cx="775" cy="298" r="3.4"/>
  <circle class="dot-off" cx="790" cy="298" r="3.4"/>
  <text class="sans faint" x="840" y="303" font-size="11" text-anchor="end">&#8212;</text>

  <!-- 09 Trees -->
  <text class="sans faint"  x="40" y="335" font-size="9.5" letter-spacing="1">09</text>
  <text class="serif muted" x="70" y="335" font-size="14.5">Trees</text>
  <line class="rule-l" x1="230" y1="330" x2="645" y2="330" stroke-width="0.75" stroke-dasharray="1 4"/>
  <circle class="dot-off" cx="655" cy="330" r="3.4"/>
  <circle class="dot-off" cx="670" cy="330" r="3.4"/>
  <circle class="dot-off" cx="685" cy="330" r="3.4"/>
  <circle class="dot-off" cx="700" cy="330" r="3.4"/>
  <circle class="dot-off" cx="715" cy="330" r="3.4"/>
  <circle class="dot-off" cx="730" cy="330" r="3.4"/>
  <circle class="dot-off" cx="745" cy="330" r="3.4"/>
  <circle class="dot-off" cx="760" cy="330" r="3.4"/>
  <circle class="dot-off" cx="775" cy="330" r="3.4"/>
  <circle class="dot-off" cx="790" cy="330" r="3.4"/>
  <text class="sans faint" x="840" y="335" font-size="11" text-anchor="end">&#8212;</text>

  <!-- 10 Graphs -->
  <text class="sans faint"  x="40" y="367" font-size="9.5" letter-spacing="1">10</text>
  <text class="serif muted" x="70" y="367" font-size="14.5">Graphs</text>
  <line class="rule-l" x1="230" y1="362" x2="645" y2="362" stroke-width="0.75" stroke-dasharray="1 4"/>
  <circle class="dot-off" cx="655" cy="362" r="3.4"/>
  <circle class="dot-off" cx="670" cy="362" r="3.4"/>
  <circle class="dot-off" cx="685" cy="362" r="3.4"/>
  <circle class="dot-off" cx="700" cy="362" r="3.4"/>
  <circle class="dot-off" cx="715" cy="362" r="3.4"/>
  <circle class="dot-off" cx="730" cy="362" r="3.4"/>
  <circle class="dot-off" cx="745" cy="362" r="3.4"/>
  <circle class="dot-off" cx="760" cy="362" r="3.4"/>
  <circle class="dot-off" cx="775" cy="362" r="3.4"/>
  <circle class="dot-off" cx="790" cy="362" r="3.4"/>
  <text class="sans faint" x="840" y="367" font-size="11" text-anchor="end">&#8212;</text>

  <!-- 11 Dynamic Programming -->
  <text class="sans faint"  x="40" y="399" font-size="9.5" letter-spacing="1">11</text>
  <text class="serif muted" x="70" y="399" font-size="14.5">Dynamic Programming</text>
  <line class="rule-l" x1="230" y1="394" x2="645" y2="394" stroke-width="0.75" stroke-dasharray="1 4"/>
  <circle class="dot-off" cx="655" cy="394" r="3.4"/>
  <circle class="dot-off" cx="670" cy="394" r="3.4"/>
  <circle class="dot-off" cx="685" cy="394" r="3.4"/>
  <circle class="dot-off" cx="700" cy="394" r="3.4"/>
  <circle class="dot-off" cx="715" cy="394" r="3.4"/>
  <circle class="dot-off" cx="730" cy="394" r="3.4"/>
  <circle class="dot-off" cx="745" cy="394" r="3.4"/>
  <circle class="dot-off" cx="760" cy="394" r="3.4"/>
  <circle class="dot-off" cx="775" cy="394" r="3.4"/>
  <circle class="dot-off" cx="790" cy="394" r="3.4"/>
  <text class="sans faint" x="840" y="399" font-size="11" text-anchor="end">&#8212;</text>

  <!-- footer -->
  <line class="rule-l" x1="40" y1="424" x2="840" y2="424" stroke-width="0.75"/>
  <text class="serif muted" x="40" y="446" font-size="12.5" font-style="italic">Each &#9675; is one problem, ten to a topic. Filled when the solution and its notes are both committed.</text>
  <text class="sans accent" x="840" y="446" font-size="10.5" letter-spacing="2.6" text-anchor="end">1 / 110</text>
</svg>
