<svg xmlns="http://www.w3.org/2000/svg" width="880" height="252" viewBox="0 0 880 252" shape-rendering="crispEdges" role="img" aria-label="Contribution calendar: 7 in the last year"><title>Contribution calendar: 7 in the last year</title><rect x="0" y="0" width="880" height="252" fill="#fff4e8"/><rect x="0" y="0" width="880" height="4" fill="#e8c8b2"/><rect x="0" y="248" width="880" height="4" fill="#e8c8b2"/><rect x="0" y="0" width="4" height="252" fill="#e8c8b2"/><rect x="876" y="0" width="4" height="252" fill="#e8c8b2"/><rect x="28" y="28" width="12" height="4" fill="#4a3547"/><rect x="24" y="32" width="4" height="4" fill="#4a3547"/><rect x="40" y="32" width="4" height="4" fill="#4a3547"/><rect x="24" y="36" width="4" height="4" fill="#4a3547"/><rect x="24" y="40" width="4" height="4" fill="#4a3547"/><rect x="24" y="44" width="4" height="4" fill="#4a3547"/><rect x="24" y="48" width="4" height="4" fill="#4a3547"/><rect x="40" y="48" width="4" height="4" fill="#4a3547"/><rect x="28" y="52" width="12" height="4" fill="#4a3547"/><rect x="52" y="28" width="12" height="4" fill="#4a3547"/><rect x="48" y="32" width="4" height="4" fill="#4a3547"/><rect x="64" y="32" width="4" height="4" fill="#4a3547"/><rect x="48" y="36" width="4" height="4" fill="#4a3547"/><rect x="64" y="36" width="4" height="4" fill="#4a3547"/><rect x="48" y="40" width="4" height="4" fill="#4a3547"/><rect x="64" y="40" width="4" height="4" fill="#4a3547"/><rect x="48" y="44" width="4" height="4" fill="#4a3547"/><rect x="64" y="44" width="4" height="4" fill="#4a3547"/><rect x="48" y="48" width="4" height="4" fill="#4a3547"/><rect x="64" y="48" width="4" height="4" fill="#4a3547"/><rect x="52" y="52" width="12" height="4" fill="#4a3547"/><rect x="72" y="28" width="4" height="4" fill="#4a3547"/><rect x="88" y="28" width="4" height="4" fill="#4a3547"/><rect x="72" y="32" width="8" height="4" fill="#4a3547"/><rect x="88" y="32" width="4" height="4" fill="#4a3547"/><rect x="72" y="36" width="8" height="4" fill="#4a3547"/><rect x="88" y="36" width="4" height="4" fill="#4a3547"/><rect x="72" y="40" width="4" height="4" fill="#4a3547"/><rect x="80" y="40" width="4" height="4" fill="#4a3547"/><rect x="88" y="40" width="4" height="4" fill="#4a3547"/><rect x="72" y="44" width="4" height="4" fill="#4a3547"/><rect x="84" y="44" width="8" height="4" fill="#4a3547"/><rect x="72" y="48" width="4" height="4" fill="#4a3547"/><rect x="84" y="48" width="8" height="4" fill="#4a3547"/><rect x="72" y="52" width="4" height="4" fill="#4a3547"/><rect x="88" y="52" width="4" height="4" fill="#4a3547"/><rect x="96" y="28" width="20" height="4" fill="#4a3547"/><rect x="104" y="32" width="4" height="4" fill="#4a3547"/><rect x="104" y="36" width="4" height="4" fill="#4a3547"/><rect x="104" y="40" width="4" height="4" fill="#4a3547"/><rect x="104" y="44" width="4" height="4" fill="#4a3547"/><rect x="104" y="48" width="4" height="4" fill="#4a3547"/><rect x="104" y="52" width="4" height="4" fill="#4a3547"/><rect x="120" y="28" width="16" height="4" fill="#4a3547"/><rect x="120" y="32" width="4" height="4" fill="#4a3547"/><rect x="136" y="32" width="4" height="4" fill="#4a3547"/><rect x="120" y="36" width="4" height="4" fill="#4a3547"/><rect x="136" y="36" width="4" height="4" fill="#4a3547"/><rect x="120" y="40" width="16" height="4" fill="#4a3547"/><rect x="120" y="44" width="4" height="4" fill="#4a3547"/><rect x="128" y="44" width="4" height="4" fill="#4a3547"/><rect x="120" y="48" width="4" height="4" fill="#4a3547"/><rect x="132" y="48" width="4" height="4" fill="#4a3547"/><rect x="120" y="52" width="4" height="4" fill="#4a3547"/><rect x="136" y="52" width="4" height="4" fill="#4a3547"/><rect x="148" y="28" width="12" height="4" fill="#4a3547"/><rect x="152" y="32" width="4" height="4" fill="#4a3547"/><rect x="152" y="36" width="4" height="4" fill="#4a3547"/><rect x="152" y="40" width="4" height="4" fill="#4a3547"/><rect x="152" y="44" width="4" height="4" fill="#4a3547"/><rect x="152" y="48" width="4" height="4" fill="#4a3547"/><rect x="148" y="52" width="12" height="4" fill="#4a3547"/><rect x="168" y="28" width="16" height="4" fill="#4a3547"/><rect x="168" y="32" width="4" height="4" fill="#4a3547"/><rect x="184" y="32" width="4" height="4" fill="#4a3547"/><rect x="168" y="36" width="4" height="4" fill="#4a3547"/><rect x="184" y="36" width="4" height="4" fill="#4a3547"/><rect x="168" y="40" width="16" height="4" fill="#4a3547"/><rect x="168" y="44" width="4" height="4" fill="#4a3547"/><rect x="184" y="44" width="4" height="4" fill="#4a3547"/><rect x="168" y="48" width="4" height="4" fill="#4a3547"/><rect x="184" y="48" width="4" height="4" fill="#4a3547"/><rect x="168" y="52" width="16" height="4" fill="#4a3547"/><rect x="192" y="28" width="4" height="4" fill="#4a3547"/><rect x="208" y="28" width="4" height="4" fill="#4a3547"/><rect x="192" y="32" width="4" height="4" fill="#4a3547"/><rect x="208" y="32" width="4" height="4" fill="#4a3547"/><rect x="192" y="36" width="4" height="4" fill="#4a3547"/><rect x="208" y="36" width="4" height="4" fill="#4a3547"/><rect x="192" y="40" width="4" height="4" fill="#4a3547"/><rect x="208" y="40" width="4" height="4" fill="#4a3547"/><rect x="192" y="44" width="4" height="4" fill="#4a3547"/><rect x="208" y="44" width="4" height="4" fill="#4a3547"/><rect x="192" y="48" width="4" height="4" fill="#4a3547"/><rect x="208" y="48" width="4" height="4" fill="#4a3547"/><rect x="196" y="52" width="12" height="4" fill="#4a3547"/><rect x="216" y="28" width="20" height="4" fill="#4a3547"/><rect x="224" y="32" width="4" height="4" fill="#4a3547"/><rect x="224" y="36" width="4" height="4" fill="#4a3547"/><rect x="224" y="40" width="4" height="4" fill="#4a3547"/><rect x="224" y="44" width="4" height="4" fill="#4a3547"/><rect x="224" y="48" width="4" height="4" fill="#4a3547"/><rect x="224" y="52" width="4" height="4" fill="#4a3547"/><rect x="244" y="28" width="12" height="4" fill="#4a3547"/><rect x="248" y="32" width="4" height="4" fill="#4a3547"/><rect x="248" y="36" width="4" height="4" fill="#4a3547"/><rect x="248" y="40" width="4" height="4" fill="#4a3547"/><rect x="248" y="44" width="4" height="4" fill="#4a3547"/><rect x="248" y="48" width="4" height="4" fill="#4a3547"/><rect x="244" y="52" width="12" height="4" fill="#4a3547"/><rect x="268" y="28" width="12" height="4" fill="#4a3547"/><rect x="264" y="32" width="4" height="4" fill="#4a3547"/><rect x="280" y="32" width="4" height="4" fill="#4a3547"/><rect x="264" y="36" width="4" height="4" fill="#4a3547"/><rect x="280" y="36" width="4" height="4" fill="#4a3547"/><rect x="264" y="40" width="4" height="4" fill="#4a3547"/><rect x="280" y="40" width="4" height="4" fill="#4a3547"/><rect x="264" y="44" width="4" height="4" fill="#4a3547"/><rect x="280" y="44" width="4" height="4" fill="#4a3547"/><rect x="264" y="48" width="4" height="4" fill="#4a3547"/><rect x="280" y="48" width="4" height="4" fill="#4a3547"/><rect x="268" y="52" width="12" height="4" fill="#4a3547"/><rect x="288" y="28" width="4" height="4" fill="#4a3547"/><rect x="304" y="28" width="4" height="4" fill="#4a3547"/><rect x="288" y="32" width="8" height="4" fill="#4a3547"/><rect x="304" y="32" width="4" height="4" fill="#4a3547"/><rect x="288" y="36" width="8" height="4" fill="#4a3547"/><rect x="304" y="36" width="4" height="4" fill="#4a3547"/><rect x="288" y="40" width="4" height="4" fill="#4a3547"/><rect x="296" y="40" width="4" height="4" fill="#4a3547"/><rect x="304" y="40" width="4" height="4" fill="#4a3547"/><rect x="288" y="44" width="4" height="4" fill="#4a3547"/><rect x="300" y="44" width="8" height="4" fill="#4a3547"/><rect x="288" y="48" width="4" height="4" fill="#4a3547"/><rect x="300" y="48" width="8" height="4" fill="#4a3547"/><rect x="288" y="52" width="4" height="4" fill="#4a3547"/><rect x="304" y="52" width="4" height="4" fill="#4a3547"/><rect x="340" y="28" width="12" height="4" fill="#4a3547"/><rect x="336" y="32" width="4" height="4" fill="#4a3547"/><rect x="352" y="32" width="4" height="4" fill="#4a3547"/><rect x="336" y="36" width="4" height="4" fill="#4a3547"/><rect x="336" y="40" width="4" height="4" fill="#4a3547"/><rect x="344" y="40" width="12" height="4" fill="#4a3547"/><rect x="336" y="44" width="4" height="4" fill="#4a3547"/><rect x="352" y="44" width="4" height="4" fill="#4a3547"/><rect x="336" y="48" width="4" height="4" fill="#4a3547"/><rect x="352" y="48" width="4" height="4" fill="#4a3547"/><rect x="340" y="52" width="12" height="4" fill="#4a3547"/><rect x="364" y="28" width="12" height="4" fill="#4a3547"/><rect x="360" y="32" width="4" height="4" fill="#4a3547"/><rect x="376" y="32" width="4" height="4" fill="#4a3547"/><rect x="360" y="36" width="4" height="4" fill="#4a3547"/><rect x="376" y="36" width="4" height="4" fill="#4a3547"/><rect x="360" y="40" width="20" height="4" fill="#4a3547"/><rect x="360" y="44" width="4" height="4" fill="#4a3547"/><rect x="376" y="44" width="4" height="4" fill="#4a3547"/><rect x="360" y="48" width="4" height="4" fill="#4a3547"/><rect x="376" y="48" width="4" height="4" fill="#4a3547"/><rect x="360" y="52" width="4" height="4" fill="#4a3547"/><rect x="376" y="52" width="4" height="4" fill="#4a3547"/><rect x="384" y="28" width="16" height="4" fill="#4a3547"/><rect x="384" y="32" width="4" height="4" fill="#4a3547"/><rect x="400" y="32" width="4" height="4" fill="#4a3547"/><rect x="384" y="36" width="4" height="4" fill="#4a3547"/><rect x="400" y="36" width="4" height="4" fill="#4a3547"/><rect x="384" y="40" width="16" height="4" fill="#4a3547"/><rect x="384" y="44" width="4" height="4" fill="#4a3547"/><rect x="392" y="44" width="4" height="4" fill="#4a3547"/><rect x="384" y="48" width="4" height="4" fill="#4a3547"/><rect x="396" y="48" width="4" height="4" fill="#4a3547"/><rect x="384" y="52" width="4" height="4" fill="#4a3547"/><rect x="400" y="52" width="4" height="4" fill="#4a3547"/><rect x="408" y="28" width="16" height="4" fill="#4a3547"/><rect x="408" y="32" width="4" height="4" fill="#4a3547"/><rect x="424" y="32" width="4" height="4" fill="#4a3547"/><rect x="408" y="36" width="4" height="4" fill="#4a3547"/><rect x="424" y="36" width="4" height="4" fill="#4a3547"/><rect x="408" y="40" width="4" height="4" fill="#4a3547"/><rect x="424" y="40" width="4" height="4" fill="#4a3547"/><rect x="408" y="44" width="4" height="4" fill="#4a3547"/><rect x="424" y="44" width="4" height="4" fill="#4a3547"/><rect x="408" y="48" width="4" height="4" fill="#4a3547"/><rect x="424" y="48" width="4" height="4" fill="#4a3547"/><rect x="408" y="52" width="16" height="4" fill="#4a3547"/><rect x="432" y="28" width="20" height="4" fill="#4a3547"/><rect x="432" y="32" width="4" height="4" fill="#4a3547"/><rect x="432" y="36" width="4" height="4" fill="#4a3547"/><rect x="432" y="40" width="16" height="4" fill="#4a3547"/><rect x="432" y="44" width="4" height="4" fill="#4a3547"/><rect x="432" y="48" width="4" height="4" fill="#4a3547"/><rect x="432" y="52" width="20" height="4" fill="#4a3547"/><rect x="456" y="28" width="4" height="4" fill="#4a3547"/><rect x="472" y="28" width="4" height="4" fill="#4a3547"/><rect x="456" y="32" width="8" height="4" fill="#4a3547"/><rect x="472" y="32" width="4" height="4" fill="#4a3547"/><rect x="456" y="36" width="8" height="4" fill="#4a3547"/><rect x="472" y="36" width="4" height="4" fill="#4a3547"/><rect x="456" y="40" width="4" height="4" fill="#4a3547"/><rect x="464" y="40" width="4" height="4" fill="#4a3547"/><rect x="472" y="40" width="4" height="4" fill="#4a3547"/><rect x="456" y="44" width="4" height="4" fill="#4a3547"/><rect x="468" y="44" width="8" height="4" fill="#4a3547"/><rect x="456" y="48" width="4" height="4" fill="#4a3547"/><rect x="468" y="48" width="8" height="4" fill="#4a3547"/><rect x="456" y="52" width="4" height="4" fill="#4a3547"/><rect x="472" y="52" width="4" height="4" fill="#4a3547"/><rect x="596" y="28" width="20" height="4" fill="#a98a9c"/><rect x="612" y="32" width="4" height="4" fill="#a98a9c"/><rect x="608" y="36" width="4" height="4" fill="#a98a9c"/><rect x="604" y="40" width="4" height="4" fill="#a98a9c"/><rect x="600" y="44" width="4" height="4" fill="#a98a9c"/><rect x="600" y="48" width="4" height="4" fill="#a98a9c"/><rect x="600" y="52" width="4" height="4" fill="#a98a9c"/><rect x="644" y="28" width="20" height="4" fill="#a98a9c"/><rect x="652" y="32" width="4" height="4" fill="#a98a9c"/><rect x="652" y="36" width="4" height="4" fill="#a98a9c"/><rect x="652" y="40" width="4" height="4" fill="#a98a9c"/><rect x="652" y="44" width="4" height="4" fill="#a98a9c"/><rect x="652" y="48" width="4" height="4" fill="#a98a9c"/><rect x="652" y="52" width="4" height="4" fill="#a98a9c"/><rect x="668" y="28" width="4" height="4" fill="#a98a9c"/><rect x="684" y="28" width="4" height="4" fill="#a98a9c"/><rect x="668" y="32" width="4" height="4" fill="#a98a9c"/><rect x="684" y="32" width="4" height="4" fill="#a98a9c"/><rect x="668" y="36" width="4" height="4" fill="#a98a9c"/><rect x="684" y="36" width="4" height="4" fill="#a98a9c"/><rect x="668" y="40" width="20" height="4" fill="#a98a9c"/><rect x="668" y="44" width="4" height="4" fill="#a98a9c"/><rect x="684" y="44" width="4" height="4" fill="#a98a9c"/><rect x="668" y="48" width="4" height="4" fill="#a98a9c"/><rect x="684" y="48" width="4" height="4" fill="#a98a9c"/><rect x="668" y="52" width="4" height="4" fill="#a98a9c"/><rect x="684" y="52" width="4" height="4" fill="#a98a9c"/><rect x="696" y="28" width="12" height="4" fill="#a98a9c"/><rect x="700" y="32" width="4" height="4" fill="#a98a9c"/><rect x="700" y="36" width="4" height="4" fill="#a98a9c"/><rect x="700" y="40" width="4" height="4" fill="#a98a9c"/><rect x="700" y="44" width="4" height="4" fill="#a98a9c"/><rect x="700" y="48" width="4" height="4" fill="#a98a9c"/><rect x="696" y="52" width="12" height="4" fill="#a98a9c"/><rect x="720" y="28" width="16" height="4" fill="#a98a9c"/><rect x="716" y="32" width="4" height="4" fill="#a98a9c"/><rect x="716" y="36" width="4" height="4" fill="#a98a9c"/><rect x="720" y="40" width="12" height="4" fill="#a98a9c"/><rect x="732" y="44" width="4" height="4" fill="#a98a9c"/><rect x="732" y="48" width="4" height="4" fill="#a98a9c"/><rect x="716" y="52" width="16" height="4" fill="#a98a9c"/><rect x="764" y="28" width="4" height="4" fill="#a98a9c"/><rect x="780" y="28" width="4" height="4" fill="#a98a9c"/><rect x="764" y="32" width="4" height="4" fill="#a98a9c"/><rect x="780" y="32" width="4" height="4" fill="#a98a9c"/><rect x="768" y="36" width="4" height="4" fill="#a98a9c"/><rect x="776" y="36" width="4" height="4" fill="#a98a9c"/><rect x="772" y="40" width="4" height="4" fill="#a98a9c"/><rect x="772" y="44" width="4" height="4" fill="#a98a9c"/><rect x="772" y="48" width="4" height="4" fill="#a98a9c"/><rect x="772" y="52" width="4" height="4" fill="#a98a9c"/><rect x="788" y="28" width="20" height="4" fill="#a98a9c"/><rect x="788" y="32" width="4" height="4" fill="#a98a9c"/><rect x="788" y="36" width="4" height="4" fill="#a98a9c"/><rect x="788" y="40" width="16" height="4" fill="#a98a9c"/><rect x="788" y="44" width="4" height="4" fill="#a98a9c"/><rect x="788" y="48" width="4" height="4" fill="#a98a9c"/><rect x="788" y="52" width="20" height="4" fill="#a98a9c"/><rect x="816" y="28" width="12" height="4" fill="#a98a9c"/><rect x="812" y="32" width="4" height="4" fill="#a98a9c"/><rect x="828" y="32" width="4" height="4" fill="#a98a9c"/><rect x="812" y="36" width="4" height="4" fill="#a98a9c"/><rect x="828" y="36" width="4" height="4" fill="#a98a9c"/><rect x="812" y="40" width="20" height="4" fill="#a98a9c"/><rect x="812" y="44" width="4" height="4" fill="#a98a9c"/><rect x="828" y="44" width="4" height="4" fill="#a98a9c"/><rect x="812" y="48" width="4" height="4" fill="#a98a9c"/><rect x="828" y="48" width="4" height="4" fill="#a98a9c"/><rect x="812" y="52" width="4" height="4" fill="#a98a9c"/><rect x="828" y="52" width="4" height="4" fill="#a98a9c"/><rect x="836" y="28" width="16" height="4" fill="#a98a9c"/><rect x="836" y="32" width="4" height="4" fill="#a98a9c"/><rect x="852" y="32" width="4" height="4" fill="#a98a9c"/><rect x="836" y="36" width="4" height="4" fill="#a98a9c"/><rect x="852" y="36" width="4" height="4" fill="#a98a9c"/><rect x="836" y="40" width="16" height="4" fill="#a98a9c"/><rect x="836" y="44" width="4" height="4" fill="#a98a9c"/><rect x="844" y="44" width="4" height="4" fill="#a98a9c"/><rect x="836" y="48" width="4" height="4" fill="#a98a9c"/><rect x="848" y="48" width="4" height="4" fill="#a98a9c"/><rect x="836" y="52" width="4" height="4" fill="#a98a9c"/><rect x="852" y="52" width="4" height="4" fill="#a98a9c"/><rect x="16" y="72" width="12" height="12" fill="#f6e2d2"/><rect x="16" y="88" width="12" height="12" fill="#f6e2d2"/><rect x="16" y="104" width="12" height="12" fill="#f6e2d2"/><rect x="16" y="120" width="12" height="12" fill="#f6e2d2"/><rect x="16" y="136" width="12" height="12" fill="#f6e2d2"/><rect x="16" y="152" width="12" height="12" fill="#f6e2d2"/><rect x="16" y="168" width="12" height="12" fill="#f6e2d2"/><rect x="32" y="72" width="12" height="12" fill="#f6e2d2"/><rect x="32" y="88" width="12" height="12" fill="#f6e2d2"/><rect x="32" y="104" width="12" height="12" fill="#f6e2d2"/><rect x="32" y="120" width="12" height="12" fill="#f6e2d2"/><rect x="32" y="136" width="12" height="12" fill="#f6e2d2"/><rect x="32" y="152" width="12" height="12" fill="#f6e2d2"/><rect x="32" y="168" width="12" height="12" fill="#f6e2d2"/><rect x="48" y="72" width="12" height="12" fill="#f6e2d2"/><rect x="48" y="88" width="12" height="12" fill="#f6e2d2"/><rect x="48" y="104" width="12" height="12" fill="#f6e2d2"/><rect x="48" y="120" width="12" height="12" fill="#f6e2d2"/><rect x="48" y="136" width="12" height="12" fill="#f6e2d2"/><rect x="48" y="152" width="12" height="12" fill="#f6e2d2"/><rect x="48" y="168" width="12" height="12" fill="#f6e2d2"/><rect x="64" y="72" width="12" height="12" fill="#f6e2d2"/><rect x="64" y="88" width="12" height="12" fill="#f6e2d2"/><rect x="64" y="104" width="12" height="12" fill="#f6e2d2"/><rect x="64" y="120" width="12" height="12" fill="#f6e2d2"/><rect x="64" y="136" width="12" height="12" fill="#f6e2d2"/><rect x="64" y="152" width="12" height="12" fill="#f6e2d2"/><rect x="64" y="168" width="12" height="12" fill="#f6e2d2"/><rect x="80" y="72" width="12" height="12" fill="#f6e2d2"/><rect x="80" y="88" width="12" height="12" fill="#f6e2d2"/><rect x="80" y="104" width="12" height="12" fill="#f6e2d2"/><rect x="80" y="120" width="12" height="12" fill="#f6e2d2"/><rect x="80" y="136" width="12" height="12" fill="#f6e2d2"/><rect x="80" y="152" width="12" height="12" fill="#f6e2d2"/><rect x="80" y="168" width="12" height="12" fill="#f6e2d2"/><rect x="96" y="72" width="12" height="12" fill="#f6e2d2"/><rect x="96" y="88" width="12" height="12" fill="#f6e2d2"/><rect x="96" y="104" width="12" height="12" fill="#f6e2d2"/><rect x="96" y="120" width="12" height="12" fill="#f6e2d2"/><rect x="96" y="136" width="12" height="12" fill="#f6e2d2"/><rect x="96" y="152" width="12" height="12" fill="#f6e2d2"/><rect x="96" y="168" width="12" height="12" fill="#f6e2d2"/><rect x="112" y="72" width="12" height="12" fill="#f6e2d2"/><rect x="112" y="88" width="12" height="12" fill="#f6e2d2"/><rect x="112" y="104" width="12" height="12" fill="#f6e2d2"/><rect x="112" y="120" width="12" height="12" fill="#f6e2d2"/><rect x="112" y="136" width="12" height="12" fill="#f6e2d2"/><rect x="112" y="152" width="12" height="12" fill="#f6e2d2"/><rect x="112" y="168" width="12" height="12" fill="#f6e2d2"/><rect x="128" y="72" width="12" height="12" fill="#f6e2d2"/><rect x="128" y="88" width="12" height="12" fill="#f6e2d2"/><rect x="128" y="104" width="12" height="12" fill="#f6e2d2"/><rect x="128" y="120" width="12" height="12" fill="#f6e2d2"/><rect x="128" y="136" width="12" height="12" fill="#f6e2d2"/><rect x="128" y="152" width="12" height="12" fill="#f6e2d2"/><rect x="128" y="168" width="12" height="12" fill="#f6e2d2"/><rect x="144" y="72" width="12" height="12" fill="#f6e2d2"/><rect x="144" y="88" width="12" height="12" fill="#f6e2d2"/><rect x="144" y="104" width="12" height="12" fill="#f6e2d2"/><rect x="144" y="120" width="12" height="12" fill="#f6e2d2"/><rect x="144" y="136" width="12" height="12" fill="#f6e2d2"/><rect x="144" y="152" width="12" height="12" fill="#f6e2d2"/><rect x="144" y="168" width="12" height="12" fill="#f6e2d2"/><rect x="160" y="72" width="12" height="12" fill="#f6e2d2"/><rect x="160" y="88" width="12" height="12" fill="#f6e2d2"/><rect x="160" y="104" width="12" height="12" fill="#f6e2d2"/><rect x="160" y="120" width="12" height="12" fill="#f6e2d2"/><rect x="160" y="136" width="12" height="12" fill="#f6e2d2"/><rect x="160" y="152" width="12" height="12" fill="#f6e2d2"/><rect x="160" y="168" width="12" height="12" fill="#f6e2d2"/><rect x="176" y="72" width="12" height="12" fill="#f6e2d2"/><rect x="176" y="88" width="12" height="12" fill="#f6e2d2"/><rect x="176" y="104" width="12" height="12" fill="#f6e2d2"/><rect x="176" y="120" width="12" height="12" fill="#f6e2d2"/><rect x="176" y="136" width="12" height="12" fill="#f6e2d2"/><rect x="176" y="152" width="12" height="12" fill="#f6e2d2"/><rect x="176" y="168" width="12" height="12" fill="#f6e2d2"/><rect x="192" y="72" width="12" height="12" fill="#f6e2d2"/><rect x="192" y="88" width="12" height="12" fill="#f6e2d2"/><rect x="192" y="104" width="12" height="12" fill="#f6e2d2"/><rect x="192" y="120" width="12" height="12" fill="#f6e2d2"/><rect x="192" y="136" width="12" height="12" fill="#f6e2d2"/><rect x="192" y="152" width="12" height="12" fill="#f6e2d2"/><rect x="192" y="168" width="12" height="12" fill="#f6e2d2"/><rect x="208" y="72" width="12" height="12" fill="#f6e2d2"/><rect x="208" y="88" width="12" height="12" fill="#f6e2d2"/><rect x="208" y="104" width="12" height="12" fill="#f6e2d2"/><rect x="208" y="120" width="12" height="12" fill="#f6e2d2"/><rect x="208" y="136" width="12" height="12" fill="#f6e2d2"/><rect x="208" y="152" width="12" height="12" fill="#f6e2d2"/><rect x="208" y="168" width="12" height="12" fill="#f6e2d2"/><rect x="224" y="72" width="12" height="12" fill="#f6e2d2"/><rect x="224" y="88" width="12" height="12" fill="#f6e2d2"/><rect x="224" y="104" width="12" height="12" fill="#f6e2d2"/><rect x="224" y="120" width="12" height="12" fill="#f6e2d2"/><rect x="224" y="136" width="12" height="12" fill="#f6e2d2"/><rect x="224" y="152" width="12" height="12" fill="#f6e2d2"/><rect x="224" y="168" width="12" height="12" fill="#f6e2d2"/><rect x="240" y="72" width="12" height="12" fill="#f6e2d2"/><rect x="240" y="88" width="12" height="12" fill="#f6e2d2"/><rect x="240" y="104" width="12" height="12" fill="#f6e2d2"/><rect x="240" y="120" width="12" height="12" fill="#f6e2d2"/><rect x="240" y="136" width="12" height="12" fill="#f6e2d2"/><rect x="240" y="152" width="12" height="12" fill="#f6e2d2"/><rect x="240" y="168" width="12" height="12" fill="#f6e2d2"/><rect x="256" y="72" width="12" height="12" fill="#f6e2d2"/><rect x="256" y="88" width="12" height="12" fill="#f6e2d2"/><rect x="256" y="104" width="12" height="12" fill="#f6e2d2"/><rect x="256" y="120" width="12" height="12" fill="#f6e2d2"/><rect x="256" y="136" width="12" height="12" fill="#f6e2d2"/><rect x="256" y="152" width="12" height="12" fill="#f6e2d2"/><rect x="256" y="168" width="12" height="12" fill="#f6e2d2"/><rect x="272" y="72" width="12" height="12" fill="#f6e2d2"/><rect x="272" y="88" width="12" height="12" fill="#f6e2d2"/><rect x="272" y="104" width="12" height="12" fill="#f6e2d2"/><rect x="272" y="120" width="12" height="12" fill="#f6e2d2"/><rect x="272" y="136" width="12" height="12" fill="#f6e2d2"/><rect x="272" y="152" width="12" height="12" fill="#f6e2d2"/><rect x="272" y="168" width="12" height="12" fill="#f6e2d2"/><rect x="288" y="72" width="12" height="12" fill="#f6e2d2"/><rect x="288" y="88" width="12" height="12" fill="#f6e2d2"/><rect x="288" y="104" width="12" height="12" fill="#f6e2d2"/><rect x="288" y="120" width="12" height="12" fill="#f6e2d2"/><rect x="288" y="136" width="12" height="12" fill="#f6e2d2"/><rect x="288" y="152" width="12" height="12" fill="#f6e2d2"/><rect x="288" y="168" width="12" height="12" fill="#f6e2d2"/><rect x="304" y="72" width="12" height="12" fill="#f6e2d2"/><rect x="304" y="88" width="12" height="12" fill="#f6e2d2"/><rect x="304" y="104" width="12" height="12" fill="#f6e2d2"/><rect x="304" y="120" width="12" height="12" fill="#f6e2d2"/><rect x="304" y="136" width="12" height="12" fill="#f6e2d2"/><rect x="304" y="152" width="12" height="12" fill="#f6e2d2"/><rect x="304" y="168" width="12" height="12" fill="#f6e2d2"/><rect x="320" y="72" width="12" height="12" fill="#f6e2d2"/><rect x="320" y="88" width="12" height="12" fill="#f6e2d2"/><rect x="320" y="104" width="12" height="12" fill="#f6e2d2"/><rect x="320" y="120" width="12" height="12" fill="#f6e2d2"/><rect x="320" y="136" width="12" height="12" fill="#f6e2d2"/><rect x="320" y="152" width="12" height="12" fill="#f6e2d2"/><rect x="320" y="168" width="12" height="12" fill="#f6e2d2"/><rect x="336" y="72" width="12" height="12" fill="#f6e2d2"/><rect x="336" y="88" width="12" height="12" fill="#f6e2d2"/><rect x="336" y="104" width="12" height="12" fill="#f6e2d2"/><rect x="336" y="120" width="12" height="12" fill="#f6e2d2"/><rect x="336" y="136" width="12" height="12" fill="#f6e2d2"/><rect x="336" y="152" width="12" height="12" fill="#f6e2d2"/><rect x="336" y="168" width="12" height="12" fill="#f6e2d2"/><rect x="352" y="72" width="12" height="12" fill="#f6e2d2"/><rect x="352" y="88" width="12" height="12" fill="#f6e2d2"/><rect x="352" y="104" width="12" height="12" fill="#f6e2d2"/><rect x="352" y="120" width="12" height="12" fill="#f6e2d2"/><rect x="352" y="136" width="12" height="12" fill="#f6e2d2"/><rect x="352" y="152" width="12" height="12" fill="#f6e2d2"/><rect x="352" y="168" width="12" height="12" fill="#f6e2d2"/><rect x="368" y="72" width="12" height="12" fill="#f6e2d2"/><rect x="368" y="88" width="12" height="12" fill="#f6e2d2"/><rect x="368" y="104" width="12" height="12" fill="#f6e2d2"/><rect x="368" y="120" width="12" height="12" fill="#f6e2d2"/><rect x="368" y="136" width="12" height="12" fill="#f6e2d2"/><rect x="368" y="152" width="12" height="12" fill="#f6e2d2"/><rect x="368" y="168" width="12" height="12" fill="#f6e2d2"/><rect x="384" y="72" width="12" height="12" fill="#f6e2d2"/><rect x="384" y="88" width="12" height="12" fill="#f6e2d2"/><rect x="384" y="104" width="12" height="12" fill="#f6e2d2"/><rect x="384" y="120" width="12" height="12" fill="#f6e2d2"/><rect x="384" y="136" width="12" height="12" fill="#f6e2d2"/><rect x="384" y="152" width="12" height="12" fill="#f6e2d2"/><rect x="384" y="168" width="12" height="12" fill="#f6e2d2"/><rect x="400" y="72" width="12" height="12" fill="#f6e2d2"/><rect x="400" y="88" width="12" height="12" fill="#f6e2d2"/><rect x="400" y="104" width="12" height="12" fill="#f6e2d2"/><rect x="400" y="120" width="12" height="12" fill="#f6e2d2"/><rect x="400" y="136" width="12" height="12" fill="#f6e2d2"/><rect x="400" y="152" width="12" height="12" fill="#f6e2d2"/><rect x="400" y="168" width="12" height="12" fill="#f6e2d2"/><rect x="416" y="72" width="12" height="12" fill="#f6e2d2"/><rect x="416" y="88" width="12" height="12" fill="#f6e2d2"/><rect x="416" y="104" width="12" height="12" fill="#f6e2d2"/><rect x="416" y="120" width="12" height="12" fill="#f6e2d2"/><rect x="416" y="136" width="12" height="12" fill="#f6e2d2"/><rect x="416" y="152" width="12" height="12" fill="#f6e2d2"/><rect x="416" y="168" width="12" height="12" fill="#f6e2d2"/><rect x="432" y="72" width="12" height="12" fill="#f6e2d2"/><rect x="432" y="88" width="12" height="12" fill="#f6e2d2"/><rect x="432" y="104" width="12" height="12" fill="#f6e2d2"/><rect x="432" y="120" width="12" height="12" fill="#f6e2d2"/><rect x="432" y="136" width="12" height="12" fill="#f6e2d2"/><rect x="432" y="152" width="12" height="12" fill="#f6e2d2"/><rect x="432" y="168" width="12" height="12" fill="#f6e2d2"/><rect x="448" y="72" width="12" height="12" fill="#f6e2d2"/><rect x="448" y="88" width="12" height="12" fill="#f6e2d2"/><rect x="448" y="104" width="12" height="12" fill="#f6e2d2"/><rect x="448" y="120" width="12" height="12" fill="#f6e2d2"/><rect x="448" y="136" width="12" height="12" fill="#f6e2d2"/><rect x="448" y="152" width="12" height="12" fill="#f6e2d2"/><rect x="448" y="168" width="12" height="12" fill="#f6e2d2"/><rect x="464" y="72" width="12" height="12" fill="#f6e2d2"/><rect x="464" y="88" width="12" height="12" fill="#f6e2d2"/><rect x="464" y="104" width="12" height="12" fill="#f6e2d2"/><rect x="464" y="120" width="12" height="12" fill="#f6e2d2"/><rect x="464" y="136" width="12" height="12" fill="#f6e2d2"/><rect x="464" y="152" width="12" height="12" fill="#f6e2d2"/><rect x="464" y="168" width="12" height="12" fill="#f6e2d2"/><rect x="480" y="72" width="12" height="12" fill="#f6e2d2"/><rect x="480" y="88" width="12" height="12" fill="#f6e2d2"/><rect x="480" y="104" width="12" height="12" fill="#f6e2d2"/><rect x="480" y="120" width="12" height="12" fill="#f6e2d2"/><rect x="480" y="136" width="12" height="12" fill="#f6e2d2"/><rect x="480" y="152" width="12" height="12" fill="#f6e2d2"/><rect x="480" y="168" width="12" height="12" fill="#f6e2d2"/><rect x="496" y="72" width="12" height="12" fill="#f6e2d2"/><rect x="496" y="88" width="12" height="12" fill="#f6e2d2"/><rect x="496" y="104" width="12" height="12" fill="#f6e2d2"/><rect x="496" y="120" width="12" height="12" fill="#f6e2d2"/><rect x="496" y="136" width="12" height="12" fill="#f6e2d2"/><rect x="496" y="152" width="12" height="12" fill="#f6e2d2"/><rect x="496" y="168" width="12" height="12" fill="#f6e2d2"/><rect x="512" y="72" width="12" height="12" fill="#f6e2d2"/><rect x="512" y="88" width="12" height="12" fill="#f6e2d2"/><rect x="512" y="104" width="12" height="12" fill="#f6e2d2"/><rect x="512" y="120" width="12" height="12" fill="#f6e2d2"/><rect x="512" y="136" width="12" height="12" fill="#f6e2d2"/><rect x="512" y="152" width="12" height="12" fill="#f6e2d2"/><rect x="512" y="168" width="12" height="12" fill="#f6e2d2"/><rect x="528" y="72" width="12" height="12" fill="#f6e2d2"/><rect x="528" y="88" width="12" height="12" fill="#f6e2d2"/><rect x="528" y="104" width="12" height="12" fill="#f6e2d2"/><rect x="528" y="120" width="12" height="12" fill="#f6e2d2"/><rect x="528" y="136" width="12" height="12" fill="#f6e2d2"/><rect x="528" y="152" width="12" height="12" fill="#f6e2d2"/><rect x="528" y="168" width="12" height="12" fill="#f6e2d2"/><rect x="544" y="72" width="12" height="12" fill="#f6e2d2"/><rect x="544" y="88" width="12" height="12" fill="#f6e2d2"/><rect x="544" y="104" width="12" height="12" fill="#f6e2d2"/><rect x="544" y="120" width="12" height="12" fill="#f6e2d2"/><rect x="544" y="136" width="12" height="12" fill="#f6e2d2"/><rect x="544" y="152" width="12" height="12" fill="#f6e2d2"/><rect x="544" y="168" width="12" height="12" fill="#f6e2d2"/><rect x="560" y="72" width="12" height="12" fill="#f6e2d2"/><rect x="560" y="88" width="12" height="12" fill="#f6e2d2"/><rect x="560" y="104" width="12" height="12" fill="#f6e2d2"/><rect x="560" y="120" width="12" height="12" fill="#f6e2d2"/><rect x="560" y="136" width="12" height="12" fill="#f6e2d2"/><rect x="560" y="152" width="12" height="12" fill="#f6e2d2"/><rect x="560" y="168" width="12" height="12" fill="#f6e2d2"/><rect x="576" y="72" width="12" height="12" fill="#f6e2d2"/><rect x="576" y="88" width="12" height="12" fill="#f6e2d2"/><rect x="576" y="104" width="12" height="12" fill="#f6e2d2"/><rect x="576" y="120" width="12" height="12" fill="#f6e2d2"/><rect x="576" y="136" width="12" height="12" fill="#f6e2d2"/><rect x="576" y="152" width="12" height="12" fill="#f6e2d2"/><rect x="576" y="168" width="12" height="12" fill="#f6e2d2"/><rect x="592" y="72" width="12" height="12" fill="#f6e2d2"/><rect x="592" y="88" width="12" height="12" fill="#f6e2d2"/><rect x="592" y="104" width="12" height="12" fill="#f6e2d2"/><rect x="592" y="120" width="12" height="12" fill="#f6e2d2"/><rect x="592" y="136" width="12" height="12" fill="#f6e2d2"/><rect x="592" y="152" width="12" height="12" fill="#f6e2d2"/><rect x="592" y="168" width="12" height="12" fill="#f6e2d2"/><rect x="608" y="72" width="12" height="12" fill="#f6e2d2"/><rect x="608" y="88" width="12" height="12" fill="#f6e2d2"/><rect x="608" y="104" width="12" height="12" fill="#f6e2d2"/><rect x="608" y="120" width="12" height="12" fill="#f6e2d2"/><rect x="608" y="136" width="12" height="12" fill="#f6e2d2"/><rect x="608" y="152" width="12" height="12" fill="#f6e2d2"/><rect x="608" y="168" width="12" height="12" fill="#f6e2d2"/><rect x="624" y="72" width="12" height="12" fill="#f6e2d2"/><rect x="624" y="88" width="12" height="12" fill="#f6e2d2"/><rect x="624" y="104" width="12" height="12" fill="#f6e2d2"/><rect x="624" y="120" width="12" height="12" fill="#f6e2d2"/><rect x="624" y="136" width="12" height="12" fill="#f6e2d2"/><rect x="624" y="152" width="12" height="12" fill="#f6e2d2"/><rect x="624" y="168" width="12" height="12" fill="#f6e2d2"/><rect x="640" y="72" width="12" height="12" fill="#f6e2d2"/><rect x="640" y="88" width="12" height="12" fill="#f6e2d2"/><rect x="640" y="104" width="12" height="12" fill="#f6e2d2"/><rect x="640" y="120" width="12" height="12" fill="#f6e2d2"/><rect x="640" y="136" width="12" height="12" fill="#f6e2d2"/><rect x="640" y="152" width="12" height="12" fill="#f6e2d2"/><rect x="640" y="168" width="12" height="12" fill="#f6e2d2"/><rect x="656" y="72" width="12" height="12" fill="#f6e2d2"/><rect x="656" y="88" width="12" height="12" fill="#f6e2d2"/><rect x="656" y="104" width="12" height="12" fill="#f6e2d2"/><rect x="656" y="120" width="12" height="12" fill="#f6e2d2"/><rect x="656" y="136" width="12" height="12" fill="#f6e2d2"/><rect x="656" y="152" width="12" height="12" fill="#f6e2d2"/><rect x="656" y="168" width="12" height="12" fill="#f6e2d2"/><rect x="672" y="72" width="12" height="12" fill="#f6e2d2"/><rect x="672" y="88" width="12" height="12" fill="#f6e2d2"/><rect x="672" y="104" width="12" height="12" fill="#f6e2d2"/><rect x="672" y="120" width="12" height="12" fill="#f6e2d2"/><rect x="672" y="136" width="12" height="12" fill="#f6e2d2"/><rect x="672" y="152" width="12" height="12" fill="#f6e2d2"/><rect x="672" y="168" width="12" height="12" fill="#f6e2d2"/><rect x="688" y="72" width="12" height="12" fill="#f6e2d2"/><rect x="688" y="88" width="12" height="12" fill="#f6e2d2"/><rect x="688" y="104" width="12" height="12" fill="#f6e2d2"/><rect x="688" y="120" width="12" height="12" fill="#f6e2d2"/><rect x="688" y="136" width="12" height="12" fill="#f6e2d2"/><rect x="688" y="152" width="12" height="12" fill="#f6e2d2"/><rect x="688" y="168" width="12" height="12" fill="#f6e2d2"/><rect x="704" y="72" width="12" height="12" fill="#f6e2d2"/><rect x="704" y="88" width="12" height="12" fill="#f6e2d2"/><rect x="704" y="104" width="12" height="12" fill="#f6e2d2"/><rect x="704" y="120" width="12" height="12" fill="#f6e2d2"/><rect x="704" y="136" width="12" height="12" fill="#f6e2d2"/><rect x="704" y="152" width="12" height="12" fill="#f6e2d2"/><rect x="704" y="168" width="12" height="12" fill="#f6e2d2"/><rect x="720" y="72" width="12" height="12" fill="#f6e2d2"/><rect x="720" y="88" width="12" height="12" fill="#f6e2d2"/><rect x="720" y="104" width="12" height="12" fill="#f6e2d2"/><rect x="720" y="120" width="12" height="12" fill="#f6e2d2"/><rect x="720" y="136" width="12" height="12" fill="#f6e2d2"/><rect x="720" y="152" width="12" height="12" fill="#f6e2d2"/><rect x="720" y="168" width="12" height="12" fill="#f6e2d2"/><rect x="736" y="72" width="12" height="12" fill="#f6e2d2"/><rect x="736" y="88" width="12" height="12" fill="#f6e2d2"/><rect x="736" y="104" width="12" height="12" fill="#f6e2d2"/><rect x="736" y="120" width="12" height="12" fill="#f6e2d2"/><rect x="736" y="136" width="12" height="12" fill="#f6e2d2"/><rect x="736" y="152" width="12" height="12" fill="#f6e2d2"/><rect x="736" y="168" width="12" height="12" fill="#f6e2d2"/><rect x="752" y="72" width="12" height="12" fill="#f6e2d2"/><rect x="752" y="88" width="12" height="12" fill="#f6e2d2"/><rect x="752" y="104" width="12" height="12" fill="#f6e2d2"/><rect x="752" y="120" width="12" height="12" fill="#f6e2d2"/><rect x="752" y="136" width="12" height="12" fill="#f6e2d2"/><rect x="752" y="152" width="12" height="12" fill="#f6e2d2"/><rect x="752" y="168" width="12" height="12" fill="#f6e2d2"/><rect x="768" y="72" width="12" height="12" fill="#f6e2d2"/><rect x="768" y="88" width="12" height="12" fill="#f6e2d2"/><rect x="768" y="104" width="12" height="12" fill="#f6e2d2"/><rect x="768" y="120" width="12" height="12" fill="#f6e2d2"/><rect x="768" y="136" width="12" height="12" fill="#f6e2d2"/><rect x="768" y="152" width="12" height="12" fill="#f6e2d2"/><rect x="768" y="168" width="12" height="12" fill="#f6e2d2"/><rect x="784" y="72" width="12" height="12" fill="#f6e2d2"/><rect x="784" y="88" width="12" height="12" fill="#f6e2d2"/><rect x="784" y="104" width="12" height="12" fill="#f6e2d2"/><rect x="784" y="120" width="12" height="12" fill="#f6e2d2"/><rect x="784" y="136" width="12" height="12" fill="#f6e2d2"/><rect x="784" y="152" width="12" height="12" fill="#f6e2d2"/><rect x="784" y="168" width="12" height="12" fill="#f6e2d2"/><rect x="800" y="72" width="12" height="12" fill="#f6e2d2"/><rect x="800" y="88" width="12" height="12" fill="#ffb182"/><rect x="800" y="104" width="12" height="12" fill="#f6e2d2"/><rect x="800" y="120" width="12" height="12" fill="#f6e2d2"/><rect x="800" y="136" width="12" height="12" fill="#f6e2d2"/><rect x="800" y="152" width="12" height="12" fill="#f6e2d2"/><rect x="800" y="168" width="12" height="12" fill="#f6e2d2"/><rect x="816" y="72" width="12" height="12" fill="#f6e2d2"/><rect x="816" y="88" width="12" height="12" fill="#f6e2d2"/><rect x="816" y="104" width="12" height="12" fill="#f6e2d2"/><rect x="816" y="120" width="12" height="12" fill="#f6e2d2"/><rect x="816" y="136" width="12" height="12" fill="#f6e2d2"/><rect x="816" y="152" width="12" height="12" fill="#f6e2d2"/><rect x="816" y="168" width="12" height="12" fill="#f6e2d2"/><rect x="832" y="72" width="12" height="12" fill="#f6e2d2"/><rect x="832" y="88" width="12" height="12" fill="#ef6a41"/><rect x="832" y="104" width="12" height="12" fill="#f6e2d2"/><rect x="832" y="120" width="12" height="12" fill="#ef6a41"/><rect x="832" y="136" width="12" height="12" fill="#f6e2d2"/><rect x="832" y="152" width="12" height="12" fill="#f6e2d2"/><rect x="832" y="168" width="12" height="12" fill="#f6e2d2"/><rect x="848" y="72" width="12" height="12" fill="#f6e2d2"/><rect x="848" y="88" width="12" height="12" fill="#f6e2d2"/><rect x="848" y="104" width="12" height="12" fill="#f6e2d2"/><rect x="24" y="204" width="4" height="4" fill="#a98a9c"/><rect x="24" y="208" width="4" height="4" fill="#a98a9c"/><rect x="24" y="212" width="4" height="4" fill="#a98a9c"/><rect x="24" y="216" width="4" height="4" fill="#a98a9c"/><rect x="24" y="220" width="4" height="4" fill="#a98a9c"/><rect x="24" y="224" width="4" height="4" fill="#a98a9c"/><rect x="24" y="228" width="20" height="4" fill="#a98a9c"/><rect x="48" y="204" width="20" height="4" fill="#a98a9c"/><rect x="48" y="208" width="4" height="4" fill="#a98a9c"/><rect x="48" y="212" width="4" height="4" fill="#a98a9c"/><rect x="48" y="216" width="16" height="4" fill="#a98a9c"/><rect x="48" y="220" width="4" height="4" fill="#a98a9c"/><rect x="48" y="224" width="4" height="4" fill="#a98a9c"/><rect x="48" y="228" width="20" height="4" fill="#a98a9c"/><rect x="76" y="204" width="16" height="4" fill="#a98a9c"/><rect x="72" y="208" width="4" height="4" fill="#a98a9c"/><rect x="72" y="212" width="4" height="4" fill="#a98a9c"/><rect x="76" y="216" width="12" height="4" fill="#a98a9c"/><rect x="88" y="220" width="4" height="4" fill="#a98a9c"/><rect x="88" y="224" width="4" height="4" fill="#a98a9c"/><rect x="72" y="228" width="16" height="4" fill="#a98a9c"/><rect x="100" y="204" width="16" height="4" fill="#a98a9c"/><rect x="96" y="208" width="4" height="4" fill="#a98a9c"/><rect x="96" y="212" width="4" height="4" fill="#a98a9c"/><rect x="100" y="216" width="12" height="4" fill="#a98a9c"/><rect x="112" y="220" width="4" height="4" fill="#a98a9c"/><rect x="112" y="224" width="4" height="4" fill="#a98a9c"/><rect x="96" y="228" width="16" height="4" fill="#a98a9c"/><rect x="140" y="208" width="16" height="16" fill="#f6e2d2"/><rect x="160" y="208" width="16" height="16" fill="#ffd2ab"/><rect x="180" y="208" width="16" height="16" fill="#ffb182"/><rect x="200" y="208" width="16" height="16" fill="#ff8d5e"/><rect x="220" y="208" width="16" height="16" fill="#ef6a41"/><rect x="252" y="204" width="4" height="4" fill="#a98a9c"/><rect x="268" y="204" width="4" height="4" fill="#a98a9c"/><rect x="252" y="208" width="8" height="4" fill="#a98a9c"/><rect x="264" y="208" width="8" height="4" fill="#a98a9c"/><rect x="252" y="212" width="4" height="4" fill="#a98a9c"/><rect x="260" y="212" width="4" height="4" fill="#a98a9c"/><rect x="268" y="212" width="4" height="4" fill="#a98a9c"/><rect x="252" y="216" width="4" height="4" fill="#a98a9c"/><rect x="268" y="216" width="4" height="4" fill="#a98a9c"/><rect x="252" y="220" width="4" height="4" fill="#a98a9c"/><rect x="268" y="220" width="4" height="4" fill="#a98a9c"/><rect x="252" y="224" width="4" height="4" fill="#a98a9c"/><rect x="268" y="224" width="4" height="4" fill="#a98a9c"/><rect x="252" y="228" width="4" height="4" fill="#a98a9c"/><rect x="268" y="228" width="4" height="4" fill="#a98a9c"/><rect x="280" y="204" width="12" height="4" fill="#a98a9c"/><rect x="276" y="208" width="4" height="4" fill="#a98a9c"/><rect x="292" y="208" width="4" height="4" fill="#a98a9c"/><rect x="276" y="212" width="4" height="4" fill="#a98a9c"/><rect x="292" y="212" width="4" height="4" fill="#a98a9c"/><rect x="276" y="216" width="4" height="4" fill="#a98a9c"/><rect x="292" y="216" width="4" height="4" fill="#a98a9c"/><rect x="276" y="220" width="4" height="4" fill="#a98a9c"/><rect x="292" y="220" width="4" height="4" fill="#a98a9c"/><rect x="276" y="224" width="4" height="4" fill="#a98a9c"/><rect x="292" y="224" width="4" height="4" fill="#a98a9c"/><rect x="280" y="228" width="12" height="4" fill="#a98a9c"/><rect x="300" y="204" width="16" height="4" fill="#a98a9c"/><rect x="300" y="208" width="4" height="4" fill="#a98a9c"/><rect x="316" y="208" width="4" height="4" fill="#a98a9c"/><rect x="300" y="212" width="4" height="4" fill="#a98a9c"/><rect x="316" y="212" width="4" height="4" fill="#a98a9c"/><rect x="300" y="216" width="16" height="4" fill="#a98a9c"/><rect x="300" y="220" width="4" height="4" fill="#a98a9c"/><rect x="308" y="220" width="4" height="4" fill="#a98a9c"/><rect x="300" y="224" width="4" height="4" fill="#a98a9c"/><rect x="312" y="224" width="4" height="4" fill="#a98a9c"/><rect x="300" y="228" width="4" height="4" fill="#a98a9c"/><rect x="316" y="228" width="4" height="4" fill="#a98a9c"/><rect x="324" y="204" width="20" height="4" fill="#a98a9c"/><rect x="324" y="208" width="4" height="4" fill="#a98a9c"/><rect x="324" y="212" width="4" height="4" fill="#a98a9c"/><rect x="324" y="216" width="16" height="4" fill="#a98a9c"/><rect x="324" y="220" width="4" height="4" fill="#a98a9c"/><rect x="324" y="224" width="4" height="4" fill="#a98a9c"/><rect x="324" y="228" width="20" height="4" fill="#a98a9c"/></svg>