<svg xmlns="http://www.w3.org/2000/svg" width="880" height="148" viewBox="0 0 880 148" shape-rendering="crispEdges" role="img" aria-label="Language composition: C++ 100%"><title>Language composition: C++ 100%</title><rect x="0" y="0" width="880" height="148" fill="#221d44"/><rect x="0" y="0" width="880" height="4" fill="#453a78"/><rect x="0" y="144" width="880" height="4" fill="#453a78"/><rect x="0" y="0" width="4" height="148" fill="#453a78"/><rect x="876" y="0" width="4" height="148" fill="#453a78"/><rect x="24" y="28" width="4" height="4" fill="#e8e0ff"/><rect x="24" y="32" width="4" height="4" fill="#e8e0ff"/><rect x="24" y="36" width="4" height="4" fill="#e8e0ff"/><rect x="24" y="40" width="4" height="4" fill="#e8e0ff"/><rect x="24" y="44" width="4" height="4" fill="#e8e0ff"/><rect x="24" y="48" width="4" height="4" fill="#e8e0ff"/><rect x="24" y="52" width="20" height="4" fill="#e8e0ff"/><rect x="52" y="28" width="12" height="4" fill="#e8e0ff"/><rect x="48" y="32" width="4" height="4" fill="#e8e0ff"/><rect x="64" y="32" width="4" height="4" fill="#e8e0ff"/><rect x="48" y="36" width="4" height="4" fill="#e8e0ff"/><rect x="64" y="36" width="4" height="4" fill="#e8e0ff"/><rect x="48" y="40" width="20" height="4" fill="#e8e0ff"/><rect x="48" y="44" width="4" height="4" fill="#e8e0ff"/><rect x="64" y="44" width="4" height="4" fill="#e8e0ff"/><rect x="48" y="48" width="4" height="4" fill="#e8e0ff"/><rect x="64" y="48" width="4" height="4" fill="#e8e0ff"/><rect x="48" y="52" width="4" height="4" fill="#e8e0ff"/><rect x="64" y="52" width="4" height="4" fill="#e8e0ff"/><rect x="72" y="28" width="4" height="4" fill="#e8e0ff"/><rect x="88" y="28" width="4" height="4" fill="#e8e0ff"/><rect x="72" y="32" width="8" height="4" fill="#e8e0ff"/><rect x="88" y="32" width="4" height="4" fill="#e8e0ff"/><rect x="72" y="36" width="8" height="4" fill="#e8e0ff"/><rect x="88" y="36" width="4" height="4" fill="#e8e0ff"/><rect x="72" y="40" width="4" height="4" fill="#e8e0ff"/><rect x="80" y="40" width="4" height="4" fill="#e8e0ff"/><rect x="88" y="40" width="4" height="4" fill="#e8e0ff"/><rect x="72" y="44" width="4" height="4" fill="#e8e0ff"/><rect x="84" y="44" width="8" height="4" fill="#e8e0ff"/><rect x="72" y="48" width="4" height="4" fill="#e8e0ff"/><rect x="84" y="48" width="8" height="4" fill="#e8e0ff"/><rect x="72" y="52" width="4" height="4" fill="#e8e0ff"/><rect x="88" y="52" width="4" height="4" fill="#e8e0ff"/><rect x="100" y="28" width="12" height="4" fill="#e8e0ff"/><rect x="96" y="32" width="4" height="4" fill="#e8e0ff"/><rect x="112" y="32" width="4" height="4" fill="#e8e0ff"/><rect x="96" y="36" width="4" height="4" fill="#e8e0ff"/><rect x="96" y="40" width="4" height="4" fill="#e8e0ff"/><rect x="104" y="40" width="12" height="4" fill="#e8e0ff"/><rect x="96" y="44" width="4" height="4" fill="#e8e0ff"/><rect x="112" y="44" width="4" height="4" fill="#e8e0ff"/><rect x="96" y="48" width="4" height="4" fill="#e8e0ff"/><rect x="112" y="48" width="4" height="4" fill="#e8e0ff"/><rect x="100" y="52" width="12" height="4" fill="#e8e0ff"/><rect x="120" y="28" width="4" height="4" fill="#e8e0ff"/><rect x="136" y="28" width="4" height="4" fill="#e8e0ff"/><rect x="120" y="32" width="4" height="4" fill="#e8e0ff"/><rect x="136" y="32" width="4" height="4" fill="#e8e0ff"/><rect x="120" y="36" width="4" height="4" fill="#e8e0ff"/><rect x="136" y="36" width="4" height="4" fill="#e8e0ff"/><rect x="120" y="40" width="4" height="4" fill="#e8e0ff"/><rect x="136" y="40" width="4" height="4" fill="#e8e0ff"/><rect x="120" y="44" width="4" height="4" fill="#e8e0ff"/><rect x="136" y="44" width="4" height="4" fill="#e8e0ff"/><rect x="120" y="48" width="4" height="4" fill="#e8e0ff"/><rect x="136" y="48" width="4" height="4" fill="#e8e0ff"/><rect x="124" y="52" width="12" height="4" fill="#e8e0ff"/><rect x="148" y="28" width="12" height="4" fill="#e8e0ff"/><rect x="144" y="32" width="4" height="4" fill="#e8e0ff"/><rect x="160" y="32" width="4" height="4" fill="#e8e0ff"/><rect x="144" y="36" width="4" height="4" fill="#e8e0ff"/><rect x="160" y="36" width="4" height="4" fill="#e8e0ff"/><rect x="144" y="40" width="20" height="4" fill="#e8e0ff"/><rect x="144" y="44" width="4" height="4" fill="#e8e0ff"/><rect x="160" y="44" width="4" height="4" fill="#e8e0ff"/><rect x="144" y="48" width="4" height="4" fill="#e8e0ff"/><rect x="160" y="48" width="4" height="4" fill="#e8e0ff"/><rect x="144" y="52" width="4" height="4" fill="#e8e0ff"/><rect x="160" y="52" width="4" height="4" fill="#e8e0ff"/><rect x="172" y="28" width="12" height="4" fill="#e8e0ff"/><rect x="168" y="32" width="4" height="4" fill="#e8e0ff"/><rect x="184" y="32" width="4" height="4" fill="#e8e0ff"/><rect x="168" y="36" width="4" height="4" fill="#e8e0ff"/><rect x="168" y="40" width="4" height="4" fill="#e8e0ff"/><rect x="176" y="40" width="12" height="4" fill="#e8e0ff"/><rect x="168" y="44" width="4" height="4" fill="#e8e0ff"/><rect x="184" y="44" width="4" height="4" fill="#e8e0ff"/><rect x="168" y="48" width="4" height="4" fill="#e8e0ff"/><rect x="184" y="48" width="4" height="4" fill="#e8e0ff"/><rect x="172" y="52" width="12" height="4" fill="#e8e0ff"/><rect x="192" y="28" width="20" height="4" fill="#e8e0ff"/><rect x="192" y="32" width="4" height="4" fill="#e8e0ff"/><rect x="192" y="36" width="4" height="4" fill="#e8e0ff"/><rect x="192" y="40" width="16" height="4" fill="#e8e0ff"/><rect x="192" y="44" width="4" height="4" fill="#e8e0ff"/><rect x="192" y="48" width="4" height="4" fill="#e8e0ff"/><rect x="192" y="52" width="20" height="4" fill="#e8e0ff"/><rect x="220" y="28" width="16" height="4" fill="#e8e0ff"/><rect x="216" y="32" width="4" height="4" fill="#e8e0ff"/><rect x="216" y="36" width="4" height="4" fill="#e8e0ff"/><rect x="220" y="40" width="12" height="4" fill="#e8e0ff"/><rect x="232" y="44" width="4" height="4" fill="#e8e0ff"/><rect x="232" y="48" width="4" height="4" fill="#e8e0ff"/><rect x="216" y="52" width="16" height="4" fill="#e8e0ff"/><rect x="596" y="28" width="16" height="4" fill="#7d6fb0"/><rect x="596" y="32" width="4" height="4" fill="#7d6fb0"/><rect x="612" y="32" width="4" height="4" fill="#7d6fb0"/><rect x="596" y="36" width="4" height="4" fill="#7d6fb0"/><rect x="612" y="36" width="4" height="4" fill="#7d6fb0"/><rect x="596" y="40" width="16" height="4" fill="#7d6fb0"/><rect x="596" y="44" width="4" height="4" fill="#7d6fb0"/><rect x="596" y="48" width="4" height="4" fill="#7d6fb0"/><rect x="596" y="52" width="4" height="4" fill="#7d6fb0"/><rect x="620" y="28" width="4" height="4" fill="#7d6fb0"/><rect x="636" y="28" width="4" height="4" fill="#7d6fb0"/><rect x="620" y="32" width="4" height="4" fill="#7d6fb0"/><rect x="636" y="32" width="4" height="4" fill="#7d6fb0"/><rect x="620" y="36" width="4" height="4" fill="#7d6fb0"/><rect x="636" y="36" width="4" height="4" fill="#7d6fb0"/><rect x="620" y="40" width="4" height="4" fill="#7d6fb0"/><rect x="636" y="40" width="4" height="4" fill="#7d6fb0"/><rect x="620" y="44" width="4" height="4" fill="#7d6fb0"/><rect x="636" y="44" width="4" height="4" fill="#7d6fb0"/><rect x="620" y="48" width="4" height="4" fill="#7d6fb0"/><rect x="636" y="48" width="4" height="4" fill="#7d6fb0"/><rect x="624" y="52" width="12" height="4" fill="#7d6fb0"/><rect x="644" y="28" width="16" height="4" fill="#7d6fb0"/><rect x="644" y="32" width="4" height="4" fill="#7d6fb0"/><rect x="660" y="32" width="4" height="4" fill="#7d6fb0"/><rect x="644" y="36" width="4" height="4" fill="#7d6fb0"/><rect x="660" y="36" width="4" height="4" fill="#7d6fb0"/><rect x="644" y="40" width="16" height="4" fill="#7d6fb0"/><rect x="644" y="44" width="4" height="4" fill="#7d6fb0"/><rect x="660" y="44" width="4" height="4" fill="#7d6fb0"/><rect x="644" y="48" width="4" height="4" fill="#7d6fb0"/><rect x="660" y="48" width="4" height="4" fill="#7d6fb0"/><rect x="644" y="52" width="16" height="4" fill="#7d6fb0"/><rect x="668" y="28" width="4" height="4" fill="#7d6fb0"/><rect x="668" y="32" width="4" height="4" fill="#7d6fb0"/><rect x="668" y="36" width="4" height="4" fill="#7d6fb0"/><rect x="668" y="40" width="4" height="4" fill="#7d6fb0"/><rect x="668" y="44" width="4" height="4" fill="#7d6fb0"/><rect x="668" y="48" width="4" height="4" fill="#7d6fb0"/><rect x="668" y="52" width="20" height="4" fill="#7d6fb0"/><rect x="696" y="28" width="12" height="4" fill="#7d6fb0"/><rect x="700" y="32" width="4" height="4" fill="#7d6fb0"/><rect x="700" y="36" width="4" height="4" fill="#7d6fb0"/><rect x="700" y="40" width="4" height="4" fill="#7d6fb0"/><rect x="700" y="44" width="4" height="4" fill="#7d6fb0"/><rect x="700" y="48" width="4" height="4" fill="#7d6fb0"/><rect x="696" y="52" width="12" height="4" fill="#7d6fb0"/><rect x="720" y="28" width="12" height="4" fill="#7d6fb0"/><rect x="716" y="32" width="4" height="4" fill="#7d6fb0"/><rect x="732" y="32" width="4" height="4" fill="#7d6fb0"/><rect x="716" y="36" width="4" height="4" fill="#7d6fb0"/><rect x="716" y="40" width="4" height="4" fill="#7d6fb0"/><rect x="716" y="44" width="4" height="4" fill="#7d6fb0"/><rect x="716" y="48" width="4" height="4" fill="#7d6fb0"/><rect x="732" y="48" width="4" height="4" fill="#7d6fb0"/><rect x="720" y="52" width="12" height="4" fill="#7d6fb0"/><rect x="768" y="28" width="12" height="4" fill="#7d6fb0"/><rect x="764" y="32" width="4" height="4" fill="#7d6fb0"/><rect x="780" y="32" width="4" height="4" fill="#7d6fb0"/><rect x="764" y="36" width="4" height="4" fill="#7d6fb0"/><rect x="764" y="40" width="4" height="4" fill="#7d6fb0"/><rect x="764" y="44" width="4" height="4" fill="#7d6fb0"/><rect x="764" y="48" width="4" height="4" fill="#7d6fb0"/><rect x="780" y="48" width="4" height="4" fill="#7d6fb0"/><rect x="768" y="52" width="12" height="4" fill="#7d6fb0"/><rect x="792" y="28" width="12" height="4" fill="#7d6fb0"/><rect x="788" y="32" width="4" height="4" fill="#7d6fb0"/><rect x="804" y="32" width="4" height="4" fill="#7d6fb0"/><rect x="788" y="36" width="4" height="4" fill="#7d6fb0"/><rect x="804" y="36" width="4" height="4" fill="#7d6fb0"/><rect x="788" y="40" width="4" height="4" fill="#7d6fb0"/><rect x="804" y="40" width="4" height="4" fill="#7d6fb0"/><rect x="788" y="44" width="4" height="4" fill="#7d6fb0"/><rect x="804" y="44" width="4" height="4" fill="#7d6fb0"/><rect x="788" y="48" width="4" height="4" fill="#7d6fb0"/><rect x="804" y="48" width="4" height="4" fill="#7d6fb0"/><rect x="792" y="52" width="12" height="4" fill="#7d6fb0"/><rect x="812" y="28" width="16" height="4" fill="#7d6fb0"/><rect x="812" y="32" width="4" height="4" fill="#7d6fb0"/><rect x="828" y="32" width="4" height="4" fill="#7d6fb0"/><rect x="812" y="36" width="4" height="4" fill="#7d6fb0"/><rect x="828" y="36" width="4" height="4" fill="#7d6fb0"/><rect x="812" y="40" width="4" height="4" fill="#7d6fb0"/><rect x="828" y="40" width="4" height="4" fill="#7d6fb0"/><rect x="812" y="44" width="4" height="4" fill="#7d6fb0"/><rect x="828" y="44" width="4" height="4" fill="#7d6fb0"/><rect x="812" y="48" width="4" height="4" fill="#7d6fb0"/><rect x="828" y="48" width="4" height="4" fill="#7d6fb0"/><rect x="812" y="52" width="16" height="4" fill="#7d6fb0"/><rect x="836" y="28" width="20" height="4" fill="#7d6fb0"/><rect x="836" y="32" width="4" height="4" fill="#7d6fb0"/><rect x="836" y="36" width="4" height="4" fill="#7d6fb0"/><rect x="836" y="40" width="16" height="4" fill="#7d6fb0"/><rect x="836" y="44" width="4" height="4" fill="#7d6fb0"/><rect x="836" y="48" width="4" height="4" fill="#7d6fb0"/><rect x="836" y="52" width="20" height="4" fill="#7d6fb0"/><rect x="24" y="68" width="832" height="4" fill="#332b5e"/><rect x="28" y="88" width="12" height="4" fill="#e8e0ff"/><rect x="24" y="92" width="4" height="4" fill="#e8e0ff"/><rect x="40" y="92" width="4" height="4" fill="#e8e0ff"/><rect x="24" y="96" width="4" height="4" fill="#e8e0ff"/><rect x="24" y="100" width="4" height="4" fill="#e8e0ff"/><rect x="24" y="104" width="4" height="4" fill="#e8e0ff"/><rect x="24" y="108" width="4" height="4" fill="#e8e0ff"/><rect x="40" y="108" width="4" height="4" fill="#e8e0ff"/><rect x="28" y="112" width="12" height="4" fill="#e8e0ff"/><rect x="56" y="92" width="4" height="4" fill="#e8e0ff"/><rect x="56" y="96" width="4" height="4" fill="#e8e0ff"/><rect x="48" y="100" width="20" height="4" fill="#e8e0ff"/><rect x="56" y="104" width="4" height="4" fill="#e8e0ff"/><rect x="56" y="108" width="4" height="4" fill="#e8e0ff"/><rect x="80" y="92" width="4" height="4" fill="#e8e0ff"/><rect x="80" y="96" width="4" height="4" fill="#e8e0ff"/><rect x="72" y="100" width="20" height="4" fill="#e8e0ff"/><rect x="80" y="104" width="4" height="4" fill="#e8e0ff"/><rect x="80" y="108" width="4" height="4" fill="#e8e0ff"/><rect x="280" y="88" width="16" height="28" fill="#f34b7d"/><rect x="300" y="88" width="16" height="28" fill="#f34b7d"/><rect x="320" y="88" width="16" height="28" fill="#f34b7d"/><rect x="340" y="88" width="16" height="28" fill="#f34b7d"/><rect x="360" y="88" width="16" height="28" fill="#f34b7d"/><rect x="380" y="88" width="16" height="28" fill="#f34b7d"/><rect x="400" y="88" width="16" height="28" fill="#f34b7d"/><rect x="420" y="88" width="16" height="28" fill="#f34b7d"/><rect x="440" y="88" width="16" height="28" fill="#f34b7d"/><rect x="460" y="88" width="16" height="28" fill="#f34b7d"/><rect x="480" y="88" width="16" height="28" fill="#f34b7d"/><rect x="500" y="88" width="16" height="28" fill="#f34b7d"/><rect x="520" y="88" width="16" height="28" fill="#f34b7d"/><rect x="540" y="88" width="16" height="28" fill="#f34b7d"/><rect x="560" y="88" width="16" height="28" fill="#f34b7d"/><rect x="580" y="88" width="16" height="28" fill="#f34b7d"/><rect x="600" y="88" width="16" height="28" fill="#f34b7d"/><rect x="620" y="88" width="16" height="28" fill="#f34b7d"/><rect x="640" y="88" width="16" height="28" fill="#f34b7d"/><rect x="660" y="88" width="16" height="28" fill="#f34b7d"/><rect x="772" y="88" width="4" height="4" fill="#7d6fb0"/><rect x="768" y="92" width="8" height="4" fill="#7d6fb0"/><rect x="772" y="96" width="4" height="4" fill="#7d6fb0"/><rect x="772" y="100" width="4" height="4" fill="#7d6fb0"/><rect x="772" y="104" width="4" height="4" fill="#7d6fb0"/><rect x="772" y="108" width="4" height="4" fill="#7d6fb0"/><rect x="768" y="112" width="12" height="4" fill="#7d6fb0"/><rect x="792" y="88" width="12" height="4" fill="#7d6fb0"/><rect x="788" y="92" width="4" height="4" fill="#7d6fb0"/><rect x="804" y="92" width="4" height="4" fill="#7d6fb0"/><rect x="788" y="96" width="4" height="4" fill="#7d6fb0"/><rect x="800" y="96" width="8" height="4" fill="#7d6fb0"/><rect x="788" y="100" width="4" height="4" fill="#7d6fb0"/><rect x="796" y="100" width="4" height="4" fill="#7d6fb0"/><rect x="804" y="100" width="4" height="4" fill="#7d6fb0"/><rect x="788" y="104" width="8" height="4" fill="#7d6fb0"/><rect x="804" y="104" width="4" height="4" fill="#7d6fb0"/><rect x="788" y="108" width="4" height="4" fill="#7d6fb0"/><rect x="804" y="108" width="4" height="4" fill="#7d6fb0"/><rect x="792" y="112" width="12" height="4" fill="#7d6fb0"/><rect x="816" y="88" width="12" height="4" fill="#7d6fb0"/><rect x="812" y="92" width="4" height="4" fill="#7d6fb0"/><rect x="828" y="92" width="4" height="4" fill="#7d6fb0"/><rect x="812" y="96" width="4" height="4" fill="#7d6fb0"/><rect x="824" y="96" width="8" height="4" fill="#7d6fb0"/><rect x="812" y="100" width="4" height="4" fill="#7d6fb0"/><rect x="820" y="100" width="4" height="4" fill="#7d6fb0"/><rect x="828" y="100" width="4" height="4" fill="#7d6fb0"/><rect x="812" y="104" width="8" height="4" fill="#7d6fb0"/><rect x="828" y="104" width="4" height="4" fill="#7d6fb0"/><rect x="812" y="108" width="4" height="4" fill="#7d6fb0"/><rect x="828" y="108" width="4" height="4" fill="#7d6fb0"/><rect x="816" y="112" width="12" height="4" fill="#7d6fb0"/><rect x="836" y="88" width="8" height="4" fill="#7d6fb0"/><rect x="852" y="88" width="4" height="4" fill="#7d6fb0"/><rect x="836" y="92" width="8" height="4" fill="#7d6fb0"/><rect x="848" y="92" width="4" height="4" fill="#7d6fb0"/><rect x="844" y="96" width="4" height="4" fill="#7d6fb0"/><rect x="844" y="100" width="4" height="4" fill="#7d6fb0"/><rect x="840" y="104" width="4" height="4" fill="#7d6fb0"/><rect x="836" y="108" width="4" height="4" fill="#7d6fb0"/><rect x="844" y="108" width="8" height="4" fill="#7d6fb0"/><rect x="836" y="112" width="4" height="4" fill="#7d6fb0"/><rect x="848" y="112" width="8" height="4" fill="#7d6fb0"/></svg>