<svg xmlns="http://www.w3.org/2000/svg" width="880" height="192" viewBox="0 0 880 192" shape-rendering="crispEdges" role="img" aria-label="Repositories: Cpp-DSA-journey"><title>Repositories: Cpp-DSA-journey</title><rect x="0" y="0" width="880" height="192" fill="#221d44"/><rect x="0" y="0" width="880" height="4" fill="#453a78"/><rect x="0" y="188" width="880" height="4" fill="#453a78"/><rect x="0" y="0" width="4" height="192" fill="#453a78"/><rect x="876" y="0" width="4" height="192" fill="#453a78"/><rect x="24" y="28" width="16" height="4" fill="#e8e0ff"/><rect x="24" y="32" width="4" height="4" fill="#e8e0ff"/><rect x="40" y="32" width="4" height="4" fill="#e8e0ff"/><rect x="24" y="36" width="4" height="4" fill="#e8e0ff"/><rect x="40" y="36" width="4" height="4" fill="#e8e0ff"/><rect x="24" y="40" width="16" height="4" fill="#e8e0ff"/><rect x="24" y="44" width="4" height="4" fill="#e8e0ff"/><rect x="32" y="44" width="4" height="4" fill="#e8e0ff"/><rect x="24" y="48" width="4" height="4" fill="#e8e0ff"/><rect x="36" y="48" width="4" height="4" fill="#e8e0ff"/><rect x="24" y="52" width="4" height="4" fill="#e8e0ff"/><rect x="40" y="52" width="4" height="4" fill="#e8e0ff"/><rect x="48" y="28" width="20" height="4" fill="#e8e0ff"/><rect x="48" y="32" width="4" height="4" fill="#e8e0ff"/><rect x="48" y="36" width="4" height="4" fill="#e8e0ff"/><rect x="48" y="40" width="16" height="4" fill="#e8e0ff"/><rect x="48" y="44" width="4" height="4" fill="#e8e0ff"/><rect x="48" y="48" width="4" height="4" fill="#e8e0ff"/><rect x="48" y="52" width="20" height="4" fill="#e8e0ff"/><rect x="72" y="28" width="16" height="4" fill="#e8e0ff"/><rect x="72" y="32" width="4" height="4" fill="#e8e0ff"/><rect x="88" y="32" width="4" height="4" fill="#e8e0ff"/><rect x="72" y="36" width="4" height="4" fill="#e8e0ff"/><rect x="88" y="36" width="4" height="4" fill="#e8e0ff"/><rect x="72" y="40" width="16" height="4" fill="#e8e0ff"/><rect x="72" y="44" width="4" height="4" fill="#e8e0ff"/><rect x="72" y="48" width="4" height="4" fill="#e8e0ff"/><rect x="72" y="52" width="4" height="4" fill="#e8e0ff"/><rect x="100" y="28" width="12" height="4" fill="#e8e0ff"/><rect x="96" y="32" width="4" height="4" fill="#e8e0ff"/><rect x="112" y="32" width="4" height="4" fill="#e8e0ff"/><rect x="96" y="36" width="4" height="4" fill="#e8e0ff"/><rect x="112" y="36" width="4" height="4" fill="#e8e0ff"/><rect x="96" y="40" width="4" height="4" fill="#e8e0ff"/><rect x="112" y="40" width="4" height="4" fill="#e8e0ff"/><rect x="96" y="44" width="4" height="4" fill="#e8e0ff"/><rect x="112" y="44" width="4" height="4" fill="#e8e0ff"/><rect x="96" y="48" width="4" height="4" fill="#e8e0ff"/><rect x="112" y="48" width="4" height="4" fill="#e8e0ff"/><rect x="100" y="52" width="12" height="4" fill="#e8e0ff"/><rect x="124" y="28" width="16" height="4" fill="#e8e0ff"/><rect x="120" y="32" width="4" height="4" fill="#e8e0ff"/><rect x="120" y="36" width="4" height="4" fill="#e8e0ff"/><rect x="124" y="40" width="12" height="4" fill="#e8e0ff"/><rect x="136" y="44" width="4" height="4" fill="#e8e0ff"/><rect x="136" y="48" width="4" height="4" fill="#e8e0ff"/><rect x="120" y="52" width="16" height="4" fill="#e8e0ff"/><rect x="148" y="28" width="12" height="4" fill="#e8e0ff"/><rect x="152" y="32" width="4" height="4" fill="#e8e0ff"/><rect x="152" y="36" width="4" height="4" fill="#e8e0ff"/><rect x="152" y="40" width="4" height="4" fill="#e8e0ff"/><rect x="152" y="44" width="4" height="4" fill="#e8e0ff"/><rect x="152" y="48" width="4" height="4" fill="#e8e0ff"/><rect x="148" y="52" width="12" height="4" fill="#e8e0ff"/><rect x="168" y="28" width="20" height="4" fill="#e8e0ff"/><rect x="176" y="32" width="4" height="4" fill="#e8e0ff"/><rect x="176" y="36" width="4" height="4" fill="#e8e0ff"/><rect x="176" y="40" width="4" height="4" fill="#e8e0ff"/><rect x="176" y="44" width="4" height="4" fill="#e8e0ff"/><rect x="176" y="48" width="4" height="4" fill="#e8e0ff"/><rect x="176" y="52" width="4" height="4" fill="#e8e0ff"/><rect x="196" y="28" width="12" height="4" fill="#e8e0ff"/><rect x="192" y="32" width="4" height="4" fill="#e8e0ff"/><rect x="208" y="32" width="4" height="4" fill="#e8e0ff"/><rect x="192" y="36" width="4" height="4" fill="#e8e0ff"/><rect x="208" y="36" width="4" height="4" fill="#e8e0ff"/><rect x="192" y="40" width="4" height="4" fill="#e8e0ff"/><rect x="208" y="40" width="4" height="4" fill="#e8e0ff"/><rect x="192" y="44" width="4" height="4" fill="#e8e0ff"/><rect x="208" y="44" width="4" height="4" fill="#e8e0ff"/><rect x="192" y="48" width="4" height="4" fill="#e8e0ff"/><rect x="208" y="48" width="4" height="4" fill="#e8e0ff"/><rect x="196" y="52" width="12" height="4" fill="#e8e0ff"/><rect x="216" y="28" width="16" height="4" fill="#e8e0ff"/><rect x="216" y="32" width="4" height="4" fill="#e8e0ff"/><rect x="232" y="32" width="4" height="4" fill="#e8e0ff"/><rect x="216" y="36" width="4" height="4" fill="#e8e0ff"/><rect x="232" y="36" width="4" height="4" fill="#e8e0ff"/><rect x="216" y="40" width="16" height="4" fill="#e8e0ff"/><rect x="216" y="44" width="4" height="4" fill="#e8e0ff"/><rect x="224" y="44" width="4" height="4" fill="#e8e0ff"/><rect x="216" y="48" width="4" height="4" fill="#e8e0ff"/><rect x="228" y="48" width="4" height="4" fill="#e8e0ff"/><rect x="216" y="52" width="4" height="4" fill="#e8e0ff"/><rect x="232" y="52" width="4" height="4" fill="#e8e0ff"/><rect x="244" y="28" width="12" height="4" fill="#e8e0ff"/><rect x="248" y="32" width="4" height="4" fill="#e8e0ff"/><rect x="248" y="36" width="4" height="4" fill="#e8e0ff"/><rect x="248" y="40" width="4" height="4" fill="#e8e0ff"/><rect x="248" y="44" width="4" height="4" fill="#e8e0ff"/><rect x="248" y="48" width="4" height="4" fill="#e8e0ff"/><rect x="244" y="52" width="12" height="4" fill="#e8e0ff"/><rect x="264" y="28" width="20" height="4" fill="#e8e0ff"/><rect x="264" y="32" width="4" height="4" fill="#e8e0ff"/><rect x="264" y="36" width="4" height="4" fill="#e8e0ff"/><rect x="264" y="40" width="16" height="4" fill="#e8e0ff"/><rect x="264" y="44" width="4" height="4" fill="#e8e0ff"/><rect x="264" y="48" width="4" height="4" fill="#e8e0ff"/><rect x="264" y="52" width="20" height="4" fill="#e8e0ff"/><rect x="292" y="28" width="16" height="4" fill="#e8e0ff"/><rect x="288" y="32" width="4" height="4" fill="#e8e0ff"/><rect x="288" y="36" width="4" height="4" fill="#e8e0ff"/><rect x="292" y="40" width="12" height="4" fill="#e8e0ff"/><rect x="304" y="44" width="4" height="4" fill="#e8e0ff"/><rect x="304" y="48" width="4" height="4" fill="#e8e0ff"/><rect x="288" y="52" width="16" height="4" fill="#e8e0ff"/><rect x="676" y="28" width="4" height="4" fill="#7d6fb0"/><rect x="672" y="32" width="8" height="4" fill="#7d6fb0"/><rect x="676" y="36" width="4" height="4" fill="#7d6fb0"/><rect x="676" y="40" width="4" height="4" fill="#7d6fb0"/><rect x="676" y="44" width="4" height="4" fill="#7d6fb0"/><rect x="676" y="48" width="4" height="4" fill="#7d6fb0"/><rect x="672" y="52" width="12" height="4" fill="#7d6fb0"/><rect x="716" y="28" width="16" height="4" fill="#7d6fb0"/><rect x="716" y="32" width="4" height="4" fill="#7d6fb0"/><rect x="732" y="32" width="4" height="4" fill="#7d6fb0"/><rect x="716" y="36" width="4" height="4" fill="#7d6fb0"/><rect x="732" y="36" width="4" height="4" fill="#7d6fb0"/><rect x="716" y="40" width="16" height="4" fill="#7d6fb0"/><rect x="716" y="44" width="4" height="4" fill="#7d6fb0"/><rect x="716" y="48" width="4" height="4" fill="#7d6fb0"/><rect x="716" y="52" width="4" height="4" fill="#7d6fb0"/><rect x="740" y="28" width="4" height="4" fill="#7d6fb0"/><rect x="756" y="28" width="4" height="4" fill="#7d6fb0"/><rect x="740" y="32" width="4" height="4" fill="#7d6fb0"/><rect x="756" y="32" width="4" height="4" fill="#7d6fb0"/><rect x="740" y="36" width="4" height="4" fill="#7d6fb0"/><rect x="756" y="36" width="4" height="4" fill="#7d6fb0"/><rect x="740" y="40" width="4" height="4" fill="#7d6fb0"/><rect x="756" y="40" width="4" height="4" fill="#7d6fb0"/><rect x="740" y="44" width="4" height="4" fill="#7d6fb0"/><rect x="756" y="44" width="4" height="4" fill="#7d6fb0"/><rect x="740" y="48" width="4" height="4" fill="#7d6fb0"/><rect x="756" y="48" width="4" height="4" fill="#7d6fb0"/><rect x="744" y="52" width="12" height="4" fill="#7d6fb0"/><rect x="764" y="28" width="16" height="4" fill="#7d6fb0"/><rect x="764" y="32" width="4" height="4" fill="#7d6fb0"/><rect x="780" y="32" width="4" height="4" fill="#7d6fb0"/><rect x="764" y="36" width="4" height="4" fill="#7d6fb0"/><rect x="780" y="36" width="4" height="4" fill="#7d6fb0"/><rect x="764" y="40" width="16" height="4" fill="#7d6fb0"/><rect x="764" y="44" width="4" height="4" fill="#7d6fb0"/><rect x="780" y="44" width="4" height="4" fill="#7d6fb0"/><rect x="764" y="48" width="4" height="4" fill="#7d6fb0"/><rect x="780" y="48" width="4" height="4" fill="#7d6fb0"/><rect x="764" y="52" width="16" height="4" fill="#7d6fb0"/><rect x="788" y="28" width="4" height="4" fill="#7d6fb0"/><rect x="788" y="32" width="4" height="4" fill="#7d6fb0"/><rect x="788" y="36" width="4" height="4" fill="#7d6fb0"/><rect x="788" y="40" width="4" height="4" fill="#7d6fb0"/><rect x="788" y="44" width="4" height="4" fill="#7d6fb0"/><rect x="788" y="48" width="4" height="4" fill="#7d6fb0"/><rect x="788" y="52" width="20" height="4" fill="#7d6fb0"/><rect x="816" y="28" width="12" height="4" fill="#7d6fb0"/><rect x="820" y="32" width="4" height="4" fill="#7d6fb0"/><rect x="820" y="36" width="4" height="4" fill="#7d6fb0"/><rect x="820" y="40" width="4" height="4" fill="#7d6fb0"/><rect x="820" y="44" width="4" height="4" fill="#7d6fb0"/><rect x="820" y="48" width="4" height="4" fill="#7d6fb0"/><rect x="816" y="52" width="12" height="4" fill="#7d6fb0"/><rect x="840" y="28" width="12" height="4" fill="#7d6fb0"/><rect x="836" y="32" width="4" height="4" fill="#7d6fb0"/><rect x="852" y="32" width="4" height="4" fill="#7d6fb0"/><rect x="836" y="36" width="4" height="4" fill="#7d6fb0"/><rect x="836" y="40" width="4" height="4" fill="#7d6fb0"/><rect x="836" y="44" width="4" height="4" fill="#7d6fb0"/><rect x="836" y="48" width="4" height="4" fill="#7d6fb0"/><rect x="852" y="48" width="4" height="4" fill="#7d6fb0"/><rect x="840" y="52" width="12" height="4" fill="#7d6fb0"/><rect x="24" y="68" width="832" height="4" fill="#332b5e"/><rect x="24" y="88" width="832" height="4" fill="#332b5e"/><rect x="24" y="172" width="832" height="4" fill="#332b5e"/><rect x="24" y="88" width="4" height="88" fill="#332b5e"/><rect x="852" y="88" width="4" height="88" fill="#332b5e"/><rect x="48" y="108" width="16" height="16" fill="#f34b7d"/><rect x="556" y="104" width="4" height="4" fill="#7d6fb0"/><rect x="552" y="108" width="8" height="4" fill="#7d6fb0"/><rect x="556" y="112" width="4" height="4" fill="#7d6fb0"/><rect x="556" y="116" width="4" height="4" fill="#7d6fb0"/><rect x="556" y="120" width="4" height="4" fill="#7d6fb0"/><rect x="556" y="124" width="4" height="4" fill="#7d6fb0"/><rect x="552" y="128" width="12" height="4" fill="#7d6fb0"/><rect x="576" y="104" width="12" height="4" fill="#7d6fb0"/><rect x="572" y="108" width="4" height="4" fill="#7d6fb0"/><rect x="588" y="108" width="4" height="4" fill="#7d6fb0"/><rect x="572" y="112" width="4" height="4" fill="#7d6fb0"/><rect x="588" y="112" width="4" height="4" fill="#7d6fb0"/><rect x="576" y="116" width="12" height="4" fill="#7d6fb0"/><rect x="572" y="120" width="4" height="4" fill="#7d6fb0"/><rect x="588" y="120" width="4" height="4" fill="#7d6fb0"/><rect x="572" y="124" width="4" height="4" fill="#7d6fb0"/><rect x="588" y="124" width="4" height="4" fill="#7d6fb0"/><rect x="576" y="128" width="12" height="4" fill="#7d6fb0"/><rect x="620" y="104" width="4" height="4" fill="#7d6fb0"/><rect x="636" y="104" width="4" height="4" fill="#7d6fb0"/><rect x="620" y="108" width="4" height="4" fill="#7d6fb0"/><rect x="636" y="108" width="4" height="4" fill="#7d6fb0"/><rect x="620" y="112" width="4" height="4" fill="#7d6fb0"/><rect x="636" y="112" width="4" height="4" fill="#7d6fb0"/><rect x="620" y="116" width="20" height="4" fill="#7d6fb0"/><rect x="620" y="120" width="4" height="4" fill="#7d6fb0"/><rect x="636" y="120" width="4" height="4" fill="#7d6fb0"/><rect x="620" y="124" width="4" height="4" fill="#7d6fb0"/><rect x="636" y="124" width="4" height="4" fill="#7d6fb0"/><rect x="620" y="128" width="4" height="4" fill="#7d6fb0"/><rect x="636" y="128" width="4" height="4" fill="#7d6fb0"/><rect x="648" y="104" width="12" height="4" fill="#7d6fb0"/><rect x="644" y="108" width="4" height="4" fill="#7d6fb0"/><rect x="660" y="108" width="4" height="4" fill="#7d6fb0"/><rect x="644" y="112" width="4" height="4" fill="#7d6fb0"/><rect x="660" y="112" width="4" height="4" fill="#7d6fb0"/><rect x="644" y="116" width="4" height="4" fill="#7d6fb0"/><rect x="660" y="116" width="4" height="4" fill="#7d6fb0"/><rect x="644" y="120" width="4" height="4" fill="#7d6fb0"/><rect x="660" y="120" width="4" height="4" fill="#7d6fb0"/><rect x="644" y="124" width="4" height="4" fill="#7d6fb0"/><rect x="660" y="124" width="4" height="4" fill="#7d6fb0"/><rect x="648" y="128" width="12" height="4" fill="#7d6fb0"/><rect x="668" y="104" width="4" height="4" fill="#7d6fb0"/><rect x="684" y="104" width="4" height="4" fill="#7d6fb0"/><rect x="668" y="108" width="4" height="4" fill="#7d6fb0"/><rect x="684" y="108" width="4" height="4" fill="#7d6fb0"/><rect x="668" y="112" width="4" height="4" fill="#7d6fb0"/><rect x="684" y="112" width="4" height="4" fill="#7d6fb0"/><rect x="668" y="116" width="4" height="4" fill="#7d6fb0"/><rect x="684" y="116" width="4" height="4" fill="#7d6fb0"/><rect x="668" y="120" width="4" height="4" fill="#7d6fb0"/><rect x="684" y="120" width="4" height="4" fill="#7d6fb0"/><rect x="668" y="124" width="4" height="4" fill="#7d6fb0"/><rect x="684" y="124" width="4" height="4" fill="#7d6fb0"/><rect x="672" y="128" width="12" height="4" fill="#7d6fb0"/><rect x="692" y="104" width="16" height="4" fill="#7d6fb0"/><rect x="692" y="108" width="4" height="4" fill="#7d6fb0"/><rect x="708" y="108" width="4" height="4" fill="#7d6fb0"/><rect x="692" y="112" width="4" height="4" fill="#7d6fb0"/><rect x="708" y="112" width="4" height="4" fill="#7d6fb0"/><rect x="692" y="116" width="16" height="4" fill="#7d6fb0"/><rect x="692" y="120" width="4" height="4" fill="#7d6fb0"/><rect x="700" y="120" width="4" height="4" fill="#7d6fb0"/><rect x="692" y="124" width="4" height="4" fill="#7d6fb0"/><rect x="704" y="124" width="4" height="4" fill="#7d6fb0"/><rect x="692" y="128" width="4" height="4" fill="#7d6fb0"/><rect x="708" y="128" width="4" height="4" fill="#7d6fb0"/><rect x="720" y="104" width="16" height="4" fill="#7d6fb0"/><rect x="716" y="108" width="4" height="4" fill="#7d6fb0"/><rect x="716" y="112" width="4" height="4" fill="#7d6fb0"/><rect x="720" y="116" width="12" height="4" fill="#7d6fb0"/><rect x="732" y="120" width="4" height="4" fill="#7d6fb0"/><rect x="732" y="124" width="4" height="4" fill="#7d6fb0"/><rect x="716" y="128" width="16" height="4" fill="#7d6fb0"/><rect x="768" y="104" width="12" height="4" fill="#7d6fb0"/><rect x="764" y="108" width="4" height="4" fill="#7d6fb0"/><rect x="780" y="108" width="4" height="4" fill="#7d6fb0"/><rect x="764" y="112" width="4" height="4" fill="#7d6fb0"/><rect x="780" y="112" width="4" height="4" fill="#7d6fb0"/><rect x="764" y="116" width="20" height="4" fill="#7d6fb0"/><rect x="764" y="120" width="4" height="4" fill="#7d6fb0"/><rect x="780" y="120" width="4" height="4" fill="#7d6fb0"/><rect x="764" y="124" width="4" height="4" fill="#7d6fb0"/><rect x="780" y="124" width="4" height="4" fill="#7d6fb0"/><rect x="764" y="128" width="4" height="4" fill="#7d6fb0"/><rect x="780" y="128" width="4" height="4" fill="#7d6fb0"/><rect x="792" y="104" width="12" height="4" fill="#7d6fb0"/><rect x="788" y="108" width="4" height="4" fill="#7d6fb0"/><rect x="804" y="108" width="4" height="4" fill="#7d6fb0"/><rect x="788" y="112" width="4" height="4" fill="#7d6fb0"/><rect x="788" y="116" width="4" height="4" fill="#7d6fb0"/><rect x="796" y="116" width="12" height="4" fill="#7d6fb0"/><rect x="788" y="120" width="4" height="4" fill="#7d6fb0"/><rect x="804" y="120" width="4" height="4" fill="#7d6fb0"/><rect x="788" y="124" width="4" height="4" fill="#7d6fb0"/><rect x="804" y="124" width="4" height="4" fill="#7d6fb0"/><rect x="792" y="128" width="12" height="4" fill="#7d6fb0"/><rect x="816" y="104" width="12" height="4" fill="#7d6fb0"/><rect x="812" y="108" width="4" height="4" fill="#7d6fb0"/><rect x="828" y="108" width="4" height="4" fill="#7d6fb0"/><rect x="812" y="112" width="4" height="4" fill="#7d6fb0"/><rect x="828" y="112" width="4" height="4" fill="#7d6fb0"/><rect x="812" y="116" width="4" height="4" fill="#7d6fb0"/><rect x="828" y="116" width="4" height="4" fill="#7d6fb0"/><rect x="812" y="120" width="4" height="4" fill="#7d6fb0"/><rect x="828" y="120" width="4" height="4" fill="#7d6fb0"/><rect x="812" y="124" width="4" height="4" fill="#7d6fb0"/><rect x="828" y="124" width="4" height="4" fill="#7d6fb0"/><rect x="816" y="128" width="12" height="4" fill="#7d6fb0"/><rect x="84" y="104" width="12" height="4" fill="#e8e0ff"/><rect x="80" y="108" width="4" height="4" fill="#e8e0ff"/><rect x="96" y="108" width="4" height="4" fill="#e8e0ff"/><rect x="80" y="112" width="4" height="4" fill="#e8e0ff"/><rect x="80" y="116" width="4" height="4" fill="#e8e0ff"/><rect x="80" y="120" width="4" height="4" fill="#e8e0ff"/><rect x="80" y="124" width="4" height="4" fill="#e8e0ff"/><rect x="96" y="124" width="4" height="4" fill="#e8e0ff"/><rect x="84" y="128" width="12" height="4" fill="#e8e0ff"/><rect x="104" y="104" width="16" height="4" fill="#e8e0ff"/><rect x="104" y="108" width="4" height="4" fill="#e8e0ff"/><rect x="120" y="108" width="4" height="4" fill="#e8e0ff"/><rect x="104" y="112" width="4" height="4" fill="#e8e0ff"/><rect x="120" y="112" width="4" height="4" fill="#e8e0ff"/><rect x="104" y="116" width="16" height="4" fill="#e8e0ff"/><rect x="104" y="120" width="4" height="4" fill="#e8e0ff"/><rect x="104" y="124" width="4" height="4" fill="#e8e0ff"/><rect x="104" y="128" width="4" height="4" fill="#e8e0ff"/><rect x="128" y="104" width="16" height="4" fill="#e8e0ff"/><rect x="128" y="108" width="4" height="4" fill="#e8e0ff"/><rect x="144" y="108" width="4" height="4" fill="#e8e0ff"/><rect x="128" y="112" width="4" height="4" fill="#e8e0ff"/><rect x="144" y="112" width="4" height="4" fill="#e8e0ff"/><rect x="128" y="116" width="16" height="4" fill="#e8e0ff"/><rect x="128" y="120" width="4" height="4" fill="#e8e0ff"/><rect x="128" y="124" width="4" height="4" fill="#e8e0ff"/><rect x="128" y="128" width="4" height="4" fill="#e8e0ff"/><rect x="152" y="116" width="20" height="4" fill="#e8e0ff"/><rect x="176" y="104" width="16" height="4" fill="#e8e0ff"/><rect x="176" y="108" width="4" height="4" fill="#e8e0ff"/><rect x="192" y="108" width="4" height="4" fill="#e8e0ff"/><rect x="176" y="112" width="4" height="4" fill="#e8e0ff"/><rect x="192" y="112" width="4" height="4" fill="#e8e0ff"/><rect x="176" y="116" width="4" height="4" fill="#e8e0ff"/><rect x="192" y="116" width="4" height="4" fill="#e8e0ff"/><rect x="176" y="120" width="4" height="4" fill="#e8e0ff"/><rect x="192" y="120" width="4" height="4" fill="#e8e0ff"/><rect x="176" y="124" width="4" height="4" fill="#e8e0ff"/><rect x="192" y="124" width="4" height="4" fill="#e8e0ff"/><rect x="176" y="128" width="16" height="4" fill="#e8e0ff"/><rect x="204" y="104" width="16" height="4" fill="#e8e0ff"/><rect x="200" y="108" width="4" height="4" fill="#e8e0ff"/><rect x="200" y="112" width="4" height="4" fill="#e8e0ff"/><rect x="204" y="116" width="12" height="4" fill="#e8e0ff"/><rect x="216" y="120" width="4" height="4" fill="#e8e0ff"/><rect x="216" y="124" width="4" height="4" fill="#e8e0ff"/><rect x="200" y="128" width="16" height="4" fill="#e8e0ff"/><rect x="228" y="104" width="12" height="4" fill="#e8e0ff"/><rect x="224" y="108" width="4" height="4" fill="#e8e0ff"/><rect x="240" y="108" width="4" height="4" fill="#e8e0ff"/><rect x="224" y="112" width="4" height="4" fill="#e8e0ff"/><rect x="240" y="112" width="4" height="4" fill="#e8e0ff"/><rect x="224" y="116" width="20" height="4" fill="#e8e0ff"/><rect x="224" y="120" width="4" height="4" fill="#e8e0ff"/><rect x="240" y="120" width="4" height="4" fill="#e8e0ff"/><rect x="224" y="124" width="4" height="4" fill="#e8e0ff"/><rect x="240" y="124" width="4" height="4" fill="#e8e0ff"/><rect x="224" y="128" width="4" height="4" fill="#e8e0ff"/><rect x="240" y="128" width="4" height="4" fill="#e8e0ff"/><rect x="248" y="116" width="20" height="4" fill="#e8e0ff"/><rect x="280" y="104" width="12" height="4" fill="#e8e0ff"/><rect x="284" y="108" width="4" height="4" fill="#e8e0ff"/><rect x="284" y="112" width="4" height="4" fill="#e8e0ff"/><rect x="284" y="116" width="4" height="4" fill="#e8e0ff"/><rect x="284" y="120" width="4" height="4" fill="#e8e0ff"/><rect x="272" y="124" width="4" height="4" fill="#e8e0ff"/><rect x="284" y="124" width="4" height="4" fill="#e8e0ff"/><rect x="276" y="128" width="8" height="4" fill="#e8e0ff"/><rect x="300" y="104" width="12" height="4" fill="#e8e0ff"/><rect x="296" y="108" width="4" height="4" fill="#e8e0ff"/><rect x="312" y="108" width="4" height="4" fill="#e8e0ff"/><rect x="296" y="112" width="4" height="4" fill="#e8e0ff"/><rect x="312" y="112" width="4" height="4" fill="#e8e0ff"/><rect x="296" y="116" width="4" height="4" fill="#e8e0ff"/><rect x="312" y="116" width="4" height="4" fill="#e8e0ff"/><rect x="296" y="120" width="4" height="4" fill="#e8e0ff"/><rect x="312" y="120" width="4" height="4" fill="#e8e0ff"/><rect x="296" y="124" width="4" height="4" fill="#e8e0ff"/><rect x="312" y="124" width="4" height="4" fill="#e8e0ff"/><rect x="300" y="128" width="12" height="4" fill="#e8e0ff"/><rect x="320" y="104" width="4" height="4" fill="#e8e0ff"/><rect x="336" y="104" width="4" height="4" fill="#e8e0ff"/><rect x="320" y="108" width="4" height="4" fill="#e8e0ff"/><rect x="336" y="108" width="4" height="4" fill="#e8e0ff"/><rect x="320" y="112" width="4" height="4" fill="#e8e0ff"/><rect x="336" y="112" width="4" height="4" fill="#e8e0ff"/><rect x="320" y="116" width="4" height="4" fill="#e8e0ff"/><rect x="336" y="116" width="4" height="4" fill="#e8e0ff"/><rect x="320" y="120" width="4" height="4" fill="#e8e0ff"/><rect x="336" y="120" width="4" height="4" fill="#e8e0ff"/><rect x="320" y="124" width="4" height="4" fill="#e8e0ff"/><rect x="336" y="124" width="4" height="4" fill="#e8e0ff"/><rect x="324" y="128" width="12" height="4" fill="#e8e0ff"/><rect x="344" y="104" width="16" height="4" fill="#e8e0ff"/><rect x="344" y="108" width="4" height="4" fill="#e8e0ff"/><rect x="360" y="108" width="4" height="4" fill="#e8e0ff"/><rect x="344" y="112" width="4" height="4" fill="#e8e0ff"/><rect x="360" y="112" width="4" height="4" fill="#e8e0ff"/><rect x="344" y="116" width="16" height="4" fill="#e8e0ff"/><rect x="344" y="120" width="4" height="4" fill="#e8e0ff"/><rect x="352" y="120" width="4" height="4" fill="#e8e0ff"/><rect x="344" y="124" width="4" height="4" fill="#e8e0ff"/><rect x="356" y="124" width="4" height="4" fill="#e8e0ff"/><rect x="344" y="128" width="4" height="4" fill="#e8e0ff"/><rect x="360" y="128" width="4" height="4" fill="#e8e0ff"/><rect x="368" y="104" width="4" height="4" fill="#e8e0ff"/><rect x="384" y="104" width="4" height="4" fill="#e8e0ff"/><rect x="368" y="108" width="8" height="4" fill="#e8e0ff"/><rect x="384" y="108" width="4" height="4" fill="#e8e0ff"/><rect x="368" y="112" width="8" height="4" fill="#e8e0ff"/><rect x="384" y="112" width="4" height="4" fill="#e8e0ff"/><rect x="368" y="116" width="4" height="4" fill="#e8e0ff"/><rect x="376" y="116" width="4" height="4" fill="#e8e0ff"/><rect x="384" y="116" width="4" height="4" fill="#e8e0ff"/><rect x="368" y="120" width="4" height="4" fill="#e8e0ff"/><rect x="380" y="120" width="8" height="4" fill="#e8e0ff"/><rect x="368" y="124" width="4" height="4" fill="#e8e0ff"/><rect x="380" y="124" width="8" height="4" fill="#e8e0ff"/><rect x="368" y="128" width="4" height="4" fill="#e8e0ff"/><rect x="384" y="128" width="4" height="4" fill="#e8e0ff"/><rect x="392" y="104" width="20" height="4" fill="#e8e0ff"/><rect x="392" y="108" width="4" height="4" fill="#e8e0ff"/><rect x="392" y="112" width="4" height="4" fill="#e8e0ff"/><rect x="392" y="116" width="16" height="4" fill="#e8e0ff"/><rect x="392" y="120" width="4" height="4" fill="#e8e0ff"/><rect x="392" y="124" width="4" height="4" fill="#e8e0ff"/><rect x="392" y="128" width="20" height="4" fill="#e8e0ff"/><rect x="416" y="104" width="4" height="4" fill="#e8e0ff"/><rect x="432" y="104" width="4" height="4" fill="#e8e0ff"/><rect x="416" y="108" width="4" height="4" fill="#e8e0ff"/><rect x="432" y="108" width="4" height="4" fill="#e8e0ff"/><rect x="420" y="112" width="4" height="4" fill="#e8e0ff"/><rect x="428" y="112" width="4" height="4" fill="#e8e0ff"/><rect x="424" y="116" width="4" height="4" fill="#e8e0ff"/><rect x="424" y="120" width="4" height="4" fill="#e8e0ff"/><rect x="424" y="124" width="4" height="4" fill="#e8e0ff"/><rect x="424" y="128" width="4" height="4" fill="#e8e0ff"/><rect x="764" y="140" width="4" height="4" fill="#7d6fb0"/><rect x="772" y="140" width="4" height="4" fill="#7d6fb0"/><rect x="780" y="140" width="4" height="4" fill="#7d6fb0"/><rect x="768" y="144" width="12" height="4" fill="#7d6fb0"/><rect x="764" y="148" width="20" height="4" fill="#7d6fb0"/><rect x="768" y="152" width="12" height="4" fill="#7d6fb0"/><rect x="764" y="156" width="4" height="4" fill="#7d6fb0"/><rect x="772" y="156" width="4" height="4" fill="#7d6fb0"/><rect x="780" y="156" width="4" height="4" fill="#7d6fb0"/><rect x="816" y="136" width="12" height="4" fill="#7d6fb0"/><rect x="812" y="140" width="4" height="4" fill="#7d6fb0"/><rect x="828" y="140" width="4" height="4" fill="#7d6fb0"/><rect x="812" y="144" width="4" height="4" fill="#7d6fb0"/><rect x="824" y="144" width="8" height="4" fill="#7d6fb0"/><rect x="812" y="148" width="4" height="4" fill="#7d6fb0"/><rect x="820" y="148" width="4" height="4" fill="#7d6fb0"/><rect x="828" y="148" width="4" height="4" fill="#7d6fb0"/><rect x="812" y="152" width="8" height="4" fill="#7d6fb0"/><rect x="828" y="152" width="4" height="4" fill="#7d6fb0"/><rect x="812" y="156" width="4" height="4" fill="#7d6fb0"/><rect x="828" y="156" width="4" height="4" fill="#7d6fb0"/><rect x="816" y="160" width="12" height="4" fill="#7d6fb0"/><rect x="80" y="136" width="16" height="4" fill="#7d6fb0"/><rect x="80" y="140" width="4" height="4" fill="#7d6fb0"/><rect x="96" y="140" width="4" height="4" fill="#7d6fb0"/><rect x="80" y="144" width="4" height="4" fill="#7d6fb0"/><rect x="96" y="144" width="4" height="4" fill="#7d6fb0"/><rect x="80" y="148" width="4" height="4" fill="#7d6fb0"/><rect x="96" y="148" width="4" height="4" fill="#7d6fb0"/><rect x="80" y="152" width="4" height="4" fill="#7d6fb0"/><rect x="96" y="152" width="4" height="4" fill="#7d6fb0"/><rect x="80" y="156" width="4" height="4" fill="#7d6fb0"/><rect x="96" y="156" width="4" height="4" fill="#7d6fb0"/><rect x="80" y="160" width="16" height="4" fill="#7d6fb0"/><rect x="108" y="136" width="12" height="4" fill="#7d6fb0"/><rect x="104" y="140" width="4" height="4" fill="#7d6fb0"/><rect x="120" y="140" width="4" height="4" fill="#7d6fb0"/><rect x="104" y="144" width="4" height="4" fill="#7d6fb0"/><rect x="120" y="144" width="4" height="4" fill="#7d6fb0"/><rect x="104" y="148" width="4" height="4" fill="#7d6fb0"/><rect x="120" y="148" width="4" height="4" fill="#7d6fb0"/><rect x="104" y="152" width="4" height="4" fill="#7d6fb0"/><rect x="120" y="152" width="4" height="4" fill="#7d6fb0"/><rect x="104" y="156" width="4" height="4" fill="#7d6fb0"/><rect x="120" y="156" width="4" height="4" fill="#7d6fb0"/><rect x="108" y="160" width="12" height="4" fill="#7d6fb0"/><rect x="132" y="136" width="12" height="4" fill="#7d6fb0"/><rect x="128" y="140" width="4" height="4" fill="#7d6fb0"/><rect x="144" y="140" width="4" height="4" fill="#7d6fb0"/><rect x="128" y="144" width="4" height="4" fill="#7d6fb0"/><rect x="128" y="148" width="4" height="4" fill="#7d6fb0"/><rect x="128" y="152" width="4" height="4" fill="#7d6fb0"/><rect x="128" y="156" width="4" height="4" fill="#7d6fb0"/><rect x="144" y="156" width="4" height="4" fill="#7d6fb0"/><rect x="132" y="160" width="12" height="4" fill="#7d6fb0"/><rect x="152" y="136" width="4" height="4" fill="#7d6fb0"/><rect x="168" y="136" width="4" height="4" fill="#7d6fb0"/><rect x="152" y="140" width="4" height="4" fill="#7d6fb0"/><rect x="168" y="140" width="4" height="4" fill="#7d6fb0"/><rect x="152" y="144" width="4" height="4" fill="#7d6fb0"/><rect x="168" y="144" width="4" height="4" fill="#7d6fb0"/><rect x="152" y="148" width="4" height="4" fill="#7d6fb0"/><rect x="168" y="148" width="4" height="4" fill="#7d6fb0"/><rect x="152" y="152" width="4" height="4" fill="#7d6fb0"/><rect x="168" y="152" width="4" height="4" fill="#7d6fb0"/><rect x="152" y="156" width="4" height="4" fill="#7d6fb0"/><rect x="168" y="156" width="4" height="4" fill="#7d6fb0"/><rect x="156" y="160" width="12" height="4" fill="#7d6fb0"/><rect x="176" y="136" width="4" height="4" fill="#7d6fb0"/><rect x="192" y="136" width="4" height="4" fill="#7d6fb0"/><rect x="176" y="140" width="8" height="4" fill="#7d6fb0"/><rect x="188" y="140" width="8" height="4" fill="#7d6fb0"/><rect x="176" y="144" width="4" height="4" fill="#7d6fb0"/><rect x="184" y="144" width="4" height="4" fill="#7d6fb0"/><rect x="192" y="144" width="4" height="4" fill="#7d6fb0"/><rect x="176" y="148" width="4" height="4" fill="#7d6fb0"/><rect x="192" y="148" width="4" height="4" fill="#7d6fb0"/><rect x="176" y="152" width="4" height="4" fill="#7d6fb0"/><rect x="192" y="152" width="4" height="4" fill="#7d6fb0"/><rect x="176" y="156" width="4" height="4" fill="#7d6fb0"/><rect x="192" y="156" width="4" height="4" fill="#7d6fb0"/><rect x="176" y="160" width="4" height="4" fill="#7d6fb0"/><rect x="192" y="160" width="4" height="4" fill="#7d6fb0"/><rect x="200" y="136" width="20" height="4" fill="#7d6fb0"/><rect x="200" y="140" width="4" height="4" fill="#7d6fb0"/><rect x="200" y="144" width="4" height="4" fill="#7d6fb0"/><rect x="200" y="148" width="16" height="4" fill="#7d6fb0"/><rect x="200" y="152" width="4" height="4" fill="#7d6fb0"/><rect x="200" y="156" width="4" height="4" fill="#7d6fb0"/><rect x="200" y="160" width="20" height="4" fill="#7d6fb0"/><rect x="224" y="136" width="4" height="4" fill="#7d6fb0"/><rect x="240" y="136" width="4" height="4" fill="#7d6fb0"/><rect x="224" y="140" width="8" height="4" fill="#7d6fb0"/><rect x="240" y="140" width="4" height="4" fill="#7d6fb0"/><rect x="224" y="144" width="8" height="4" fill="#7d6fb0"/><rect x="240" y="144" width="4" height="4" fill="#7d6fb0"/><rect x="224" y="148" width="4" height="4" fill="#7d6fb0"/><rect x="232" y="148" width="4" height="4" fill="#7d6fb0"/><rect x="240" y="148" width="4" height="4" fill="#7d6fb0"/><rect x="224" y="152" width="4" height="4" fill="#7d6fb0"/><rect x="236" y="152" width="8" height="4" fill="#7d6fb0"/><rect x="224" y="156" width="4" height="4" fill="#7d6fb0"/><rect x="236" y="156" width="8" height="4" fill="#7d6fb0"/><rect x="224" y="160" width="4" height="4" fill="#7d6fb0"/><rect x="240" y="160" width="4" height="4" fill="#7d6fb0"/><rect x="248" y="136" width="20" height="4" fill="#7d6fb0"/><rect x="256" y="140" width="4" height="4" fill="#7d6fb0"/><rect x="256" y="144" width="4" height="4" fill="#7d6fb0"/><rect x="256" y="148" width="4" height="4" fill="#7d6fb0"/><rect x="256" y="152" width="4" height="4" fill="#7d6fb0"/><rect x="256" y="156" width="4" height="4" fill="#7d6fb0"/><rect x="256" y="160" width="4" height="4" fill="#7d6fb0"/><rect x="276" y="136" width="12" height="4" fill="#7d6fb0"/><rect x="280" y="140" width="4" height="4" fill="#7d6fb0"/><rect x="280" y="144" width="4" height="4" fill="#7d6fb0"/><rect x="280" y="148" width="4" height="4" fill="#7d6fb0"/><rect x="280" y="152" width="4" height="4" fill="#7d6fb0"/><rect x="280" y="156" width="4" height="4" fill="#7d6fb0"/><rect x="276" y="160" width="12" height="4" fill="#7d6fb0"/><rect x="296" y="136" width="4" height="4" fill="#7d6fb0"/><rect x="312" y="136" width="4" height="4" fill="#7d6fb0"/><rect x="296" y="140" width="8" height="4" fill="#7d6fb0"/><rect x="312" y="140" width="4" height="4" fill="#7d6fb0"/><rect x="296" y="144" width="8" height="4" fill="#7d6fb0"/><rect x="312" y="144" width="4" height="4" fill="#7d6fb0"/><rect x="296" y="148" width="4" height="4" fill="#7d6fb0"/><rect x="304" y="148" width="4" height="4" fill="#7d6fb0"/><rect x="312" y="148" width="4" height="4" fill="#7d6fb0"/><rect x="296" y="152" width="4" height="4" fill="#7d6fb0"/><rect x="308" y="152" width="8" height="4" fill="#7d6fb0"/><rect x="296" y="156" width="4" height="4" fill="#7d6fb0"/><rect x="308" y="156" width="8" height="4" fill="#7d6fb0"/><rect x="296" y="160" width="4" height="4" fill="#7d6fb0"/><rect x="312" y="160" width="4" height="4" fill="#7d6fb0"/><rect x="324" y="136" width="12" height="4" fill="#7d6fb0"/><rect x="320" y="140" width="4" height="4" fill="#7d6fb0"/><rect x="336" y="140" width="4" height="4" fill="#7d6fb0"/><rect x="320" y="144" width="4" height="4" fill="#7d6fb0"/><rect x="320" y="148" width="4" height="4" fill="#7d6fb0"/><rect x="328" y="148" width="12" height="4" fill="#7d6fb0"/><rect x="320" y="152" width="4" height="4" fill="#7d6fb0"/><rect x="336" y="152" width="4" height="4" fill="#7d6fb0"/><rect x="320" y="156" width="4" height="4" fill="#7d6fb0"/><rect x="336" y="156" width="4" height="4" fill="#7d6fb0"/><rect x="324" y="160" width="12" height="4" fill="#7d6fb0"/><rect x="368" y="136" width="4" height="4" fill="#7d6fb0"/><rect x="384" y="136" width="4" height="4" fill="#7d6fb0"/><rect x="368" y="140" width="8" height="4" fill="#7d6fb0"/><rect x="380" y="140" width="8" height="4" fill="#7d6fb0"/><rect x="368" y="144" width="4" height="4" fill="#7d6fb0"/><rect x="376" y="144" width="4" height="4" fill="#7d6fb0"/><rect x="384" y="144" width="4" height="4" fill="#7d6fb0"/><rect x="368" y="148" width="4" height="4" fill="#7d6fb0"/><rect x="384" y="148" width="4" height="4" fill="#7d6fb0"/><rect x="368" y="152" width="4" height="4" fill="#7d6fb0"/><rect x="384" y="152" width="4" height="4" fill="#7d6fb0"/><rect x="368" y="156" width="4" height="4" fill="#7d6fb0"/><rect x="384" y="156" width="4" height="4" fill="#7d6fb0"/><rect x="368" y="160" width="4" height="4" fill="#7d6fb0"/><rect x="384" y="160" width="4" height="4" fill="#7d6fb0"/><rect x="392" y="136" width="4" height="4" fill="#7d6fb0"/><rect x="408" y="136" width="4" height="4" fill="#7d6fb0"/><rect x="392" y="140" width="4" height="4" fill="#7d6fb0"/><rect x="408" y="140" width="4" height="4" fill="#7d6fb0"/><rect x="396" y="144" width="4" height="4" fill="#7d6fb0"/><rect x="404" y="144" width="4" height="4" fill="#7d6fb0"/><rect x="400" y="148" width="4" height="4" fill="#7d6fb0"/><rect x="400" y="152" width="4" height="4" fill="#7d6fb0"/><rect x="400" y="156" width="4" height="4" fill="#7d6fb0"/><rect x="400" y="160" width="4" height="4" fill="#7d6fb0"/><rect x="444" y="136" width="12" height="4" fill="#7d6fb0"/><rect x="440" y="140" width="4" height="4" fill="#7d6fb0"/><rect x="456" y="140" width="4" height="4" fill="#7d6fb0"/><rect x="440" y="144" width="4" height="4" fill="#7d6fb0"/><rect x="440" y="148" width="4" height="4" fill="#7d6fb0"/><rect x="440" y="152" width="4" height="4" fill="#7d6fb0"/><rect x="440" y="156" width="4" height="4" fill="#7d6fb0"/><rect x="456" y="156" width="4" height="4" fill="#7d6fb0"/><rect x="444" y="160" width="12" height="4" fill="#7d6fb0"/><rect x="472" y="140" width="4" height="4" fill="#7d6fb0"/><rect x="472" y="144" width="4" height="4" fill="#7d6fb0"/><rect x="464" y="148" width="20" height="4" fill="#7d6fb0"/><rect x="472" y="152" width="4" height="4" fill="#7d6fb0"/><rect x="472" y="156" width="4" height="4" fill="#7d6fb0"/><rect x="496" y="140" width="4" height="4" fill="#7d6fb0"/><rect x="496" y="144" width="4" height="4" fill="#7d6fb0"/><rect x="488" y="148" width="20" height="4" fill="#7d6fb0"/><rect x="496" y="152" width="4" height="4" fill="#7d6fb0"/><rect x="496" y="156" width="4" height="4" fill="#7d6fb0"/><rect x="536" y="136" width="4" height="4" fill="#7d6fb0"/><rect x="536" y="140" width="4" height="4" fill="#7d6fb0"/><rect x="536" y="144" width="4" height="4" fill="#7d6fb0"/><rect x="536" y="148" width="4" height="4" fill="#7d6fb0"/><rect x="536" y="152" width="4" height="4" fill="#7d6fb0"/><rect x="536" y="156" width="4" height="4" fill="#7d6fb0"/><rect x="536" y="160" width="20" height="4" fill="#7d6fb0"/><rect x="560" y="136" width="20" height="4" fill="#7d6fb0"/><rect x="560" y="140" width="4" height="4" fill="#7d6fb0"/><rect x="560" y="144" width="4" height="4" fill="#7d6fb0"/><rect x="560" y="148" width="16" height="4" fill="#7d6fb0"/><rect x="560" y="152" width="4" height="4" fill="#7d6fb0"/><rect x="560" y="156" width="4" height="4" fill="#7d6fb0"/><rect x="560" y="160" width="20" height="4" fill="#7d6fb0"/><rect x="588" y="136" width="12" height="4" fill="#7d6fb0"/><rect x="584" y="140" width="4" height="4" fill="#7d6fb0"/><rect x="600" y="140" width="4" height="4" fill="#7d6fb0"/><rect x="584" y="144" width="4" height="4" fill="#7d6fb0"/><rect x="600" y="144" width="4" height="4" fill="#7d6fb0"/><rect x="584" y="148" width="20" height="4" fill="#7d6fb0"/><rect x="584" y="152" width="4" height="4" fill="#7d6fb0"/><rect x="600" y="152" width="4" height="4" fill="#7d6fb0"/><rect x="584" y="156" width="4" height="4" fill="#7d6fb0"/><rect x="600" y="156" width="4" height="4" fill="#7d6fb0"/><rect x="584" y="160" width="4" height="4" fill="#7d6fb0"/><rect x="600" y="160" width="4" height="4" fill="#7d6fb0"/><rect x="608" y="136" width="16" height="4" fill="#7d6fb0"/><rect x="608" y="140" width="4" height="4" fill="#7d6fb0"/><rect x="624" y="140" width="4" height="4" fill="#7d6fb0"/><rect x="608" y="144" width="4" height="4" fill="#7d6fb0"/><rect x="624" y="144" width="4" height="4" fill="#7d6fb0"/><rect x="608" y="148" width="16" height="4" fill="#7d6fb0"/><rect x="608" y="152" width="4" height="4" fill="#7d6fb0"/><rect x="616" y="152" width="4" height="4" fill="#7d6fb0"/><rect x="608" y="156" width="4" height="4" fill="#7d6fb0"/><rect x="620" y="156" width="4" height="4" fill="#7d6fb0"/><rect x="608" y="160" width="4" height="4" fill="#7d6fb0"/><rect x="624" y="160" width="4" height="4" fill="#7d6fb0"/><rect x="632" y="136" width="4" height="4" fill="#7d6fb0"/><rect x="648" y="136" width="4" height="4" fill="#7d6fb0"/><rect x="632" y="140" width="8" height="4" fill="#7d6fb0"/><rect x="648" y="140" width="4" height="4" fill="#7d6fb0"/><rect x="632" y="144" width="8" height="4" fill="#7d6fb0"/><rect x="648" y="144" width="4" height="4" fill="#7d6fb0"/><rect x="632" y="148" width="4" height="4" fill="#7d6fb0"/><rect x="640" y="148" width="4" height="4" fill="#7d6fb0"/><rect x="648" y="148" width="4" height="4" fill="#7d6fb0"/><rect x="632" y="152" width="4" height="4" fill="#7d6fb0"/><rect x="644" y="152" width="8" height="4" fill="#7d6fb0"/><rect x="632" y="156" width="4" height="4" fill="#7d6fb0"/><rect x="644" y="156" width="8" height="4" fill="#7d6fb0"/><rect x="632" y="160" width="4" height="4" fill="#7d6fb0"/><rect x="648" y="160" width="4" height="4" fill="#7d6fb0"/><rect x="660" y="136" width="12" height="4" fill="#7d6fb0"/><rect x="664" y="140" width="4" height="4" fill="#7d6fb0"/><rect x="664" y="144" width="4" height="4" fill="#7d6fb0"/><rect x="664" y="148" width="4" height="4" fill="#7d6fb0"/><rect x="664" y="152" width="4" height="4" fill="#7d6fb0"/><rect x="664" y="156" width="4" height="4" fill="#7d6fb0"/><rect x="660" y="160" width="12" height="4" fill="#7d6fb0"/><rect x="684" y="156" width="8" height="4" fill="#7d6fb0"/><rect x="684" y="160" width="8" height="4" fill="#7d6fb0"/><rect x="708" y="156" width="8" height="4" fill="#7d6fb0"/><rect x="708" y="160" width="8" height="4" fill="#7d6fb0"/></svg>