<svg xmlns="http://www.w3.org/2000/svg" width="880" height="168" viewBox="0 0 880 168" shape-rendering="crispEdges" role="img" aria-label="Profile totals: 1 repos, 2 commits, 0 stars, 21 days in"><title>Profile totals: 1 repos, 2 commits, 0 stars, 21 days in</title><rect x="0" y="0" width="880" height="168" fill="#221d44"/><rect x="0" y="0" width="880" height="4" fill="#453a78"/><rect x="0" y="164" width="880" height="4" fill="#453a78"/><rect x="0" y="0" width="4" height="168" fill="#453a78"/><rect x="876" y="0" width="4" height="168" fill="#453a78"/><rect x="104" y="40" width="8" height="8" fill="#e8e0ff"/><rect x="96" y="48" width="16" height="8" fill="#e8e0ff"/><rect x="104" y="56" width="8" height="8" fill="#e8e0ff"/><rect x="104" y="64" width="8" height="8" fill="#e8e0ff"/><rect x="104" y="72" width="8" height="8" fill="#e8e0ff"/><rect x="104" y="80" width="8" height="8" fill="#e8e0ff"/><rect x="96" y="88" width="24" height="8" fill="#e8e0ff"/><rect x="52" y="112" width="16" height="4" fill="#7d6fb0"/><rect x="52" y="116" width="4" height="4" fill="#7d6fb0"/><rect x="68" y="116" width="4" height="4" fill="#7d6fb0"/><rect x="52" y="120" width="4" height="4" fill="#7d6fb0"/><rect x="68" y="120" width="4" height="4" fill="#7d6fb0"/><rect x="52" y="124" width="16" height="4" fill="#7d6fb0"/><rect x="52" y="128" width="4" height="4" fill="#7d6fb0"/><rect x="60" y="128" width="4" height="4" fill="#7d6fb0"/><rect x="52" y="132" width="4" height="4" fill="#7d6fb0"/><rect x="64" y="132" width="4" height="4" fill="#7d6fb0"/><rect x="52" y="136" width="4" height="4" fill="#7d6fb0"/><rect x="68" y="136" width="4" height="4" fill="#7d6fb0"/><rect x="76" y="112" width="20" height="4" fill="#7d6fb0"/><rect x="76" y="116" width="4" height="4" fill="#7d6fb0"/><rect x="76" y="120" width="4" height="4" fill="#7d6fb0"/><rect x="76" y="124" width="16" height="4" fill="#7d6fb0"/><rect x="76" y="128" width="4" height="4" fill="#7d6fb0"/><rect x="76" y="132" width="4" height="4" fill="#7d6fb0"/><rect x="76" y="136" width="20" height="4" fill="#7d6fb0"/><rect x="100" y="112" width="16" height="4" fill="#7d6fb0"/><rect x="100" y="116" width="4" height="4" fill="#7d6fb0"/><rect x="116" y="116" width="4" height="4" fill="#7d6fb0"/><rect x="100" y="120" width="4" height="4" fill="#7d6fb0"/><rect x="116" y="120" width="4" height="4" fill="#7d6fb0"/><rect x="100" y="124" width="16" height="4" fill="#7d6fb0"/><rect x="100" y="128" width="4" height="4" fill="#7d6fb0"/><rect x="100" y="132" width="4" height="4" fill="#7d6fb0"/><rect x="100" y="136" width="4" height="4" fill="#7d6fb0"/><rect x="128" y="112" width="12" height="4" fill="#7d6fb0"/><rect x="124" y="116" width="4" height="4" fill="#7d6fb0"/><rect x="140" y="116" width="4" height="4" fill="#7d6fb0"/><rect x="124" y="120" width="4" height="4" fill="#7d6fb0"/><rect x="140" y="120" width="4" height="4" fill="#7d6fb0"/><rect x="124" y="124" width="4" height="4" fill="#7d6fb0"/><rect x="140" y="124" width="4" height="4" fill="#7d6fb0"/><rect x="124" y="128" width="4" height="4" fill="#7d6fb0"/><rect x="140" y="128" width="4" height="4" fill="#7d6fb0"/><rect x="124" y="132" width="4" height="4" fill="#7d6fb0"/><rect x="140" y="132" width="4" height="4" fill="#7d6fb0"/><rect x="128" y="136" width="12" height="4" fill="#7d6fb0"/><rect x="152" y="112" width="16" height="4" fill="#7d6fb0"/><rect x="148" y="116" width="4" height="4" fill="#7d6fb0"/><rect x="148" y="120" width="4" height="4" fill="#7d6fb0"/><rect x="152" y="124" width="12" height="4" fill="#7d6fb0"/><rect x="164" y="128" width="4" height="4" fill="#7d6fb0"/><rect x="164" y="132" width="4" height="4" fill="#7d6fb0"/><rect x="148" y="136" width="16" height="4" fill="#7d6fb0"/><rect x="220" y="32" width="4" height="104" fill="#332b5e"/><rect x="316" y="40" width="24" height="8" fill="#e8e0ff"/><rect x="308" y="48" width="8" height="8" fill="#e8e0ff"/><rect x="340" y="48" width="8" height="8" fill="#e8e0ff"/><rect x="340" y="56" width="8" height="8" fill="#e8e0ff"/><rect x="332" y="64" width="8" height="8" fill="#e8e0ff"/><rect x="324" y="72" width="8" height="8" fill="#e8e0ff"/><rect x="316" y="80" width="8" height="8" fill="#e8e0ff"/><rect x="308" y="88" width="40" height="8" fill="#e8e0ff"/><rect x="252" y="112" width="12" height="4" fill="#7d6fb0"/><rect x="248" y="116" width="4" height="4" fill="#7d6fb0"/><rect x="264" y="116" width="4" height="4" fill="#7d6fb0"/><rect x="248" y="120" width="4" height="4" fill="#7d6fb0"/><rect x="248" y="124" width="4" height="4" fill="#7d6fb0"/><rect x="248" y="128" width="4" height="4" fill="#7d6fb0"/><rect x="248" y="132" width="4" height="4" fill="#7d6fb0"/><rect x="264" y="132" width="4" height="4" fill="#7d6fb0"/><rect x="252" y="136" width="12" height="4" fill="#7d6fb0"/><rect x="276" y="112" width="12" height="4" fill="#7d6fb0"/><rect x="272" y="116" width="4" height="4" fill="#7d6fb0"/><rect x="288" y="116" width="4" height="4" fill="#7d6fb0"/><rect x="272" y="120" width="4" height="4" fill="#7d6fb0"/><rect x="288" y="120" width="4" height="4" fill="#7d6fb0"/><rect x="272" y="124" width="4" height="4" fill="#7d6fb0"/><rect x="288" y="124" width="4" height="4" fill="#7d6fb0"/><rect x="272" y="128" width="4" height="4" fill="#7d6fb0"/><rect x="288" y="128" width="4" height="4" fill="#7d6fb0"/><rect x="272" y="132" width="4" height="4" fill="#7d6fb0"/><rect x="288" y="132" width="4" height="4" fill="#7d6fb0"/><rect x="276" y="136" width="12" height="4" fill="#7d6fb0"/><rect x="296" y="112" width="4" height="4" fill="#7d6fb0"/><rect x="312" y="112" width="4" height="4" fill="#7d6fb0"/><rect x="296" y="116" width="8" height="4" fill="#7d6fb0"/><rect x="308" y="116" width="8" height="4" fill="#7d6fb0"/><rect x="296" y="120" width="4" height="4" fill="#7d6fb0"/><rect x="304" y="120" width="4" height="4" fill="#7d6fb0"/><rect x="312" y="120" width="4" height="4" fill="#7d6fb0"/><rect x="296" y="124" width="4" height="4" fill="#7d6fb0"/><rect x="312" y="124" width="4" height="4" fill="#7d6fb0"/><rect x="296" y="128" width="4" height="4" fill="#7d6fb0"/><rect x="312" y="128" width="4" height="4" fill="#7d6fb0"/><rect x="296" y="132" width="4" height="4" fill="#7d6fb0"/><rect x="312" y="132" width="4" height="4" fill="#7d6fb0"/><rect x="296" y="136" width="4" height="4" fill="#7d6fb0"/><rect x="312" y="136" width="4" height="4" fill="#7d6fb0"/><rect x="320" y="112" width="4" height="4" fill="#7d6fb0"/><rect x="336" y="112" width="4" height="4" fill="#7d6fb0"/><rect x="320" y="116" width="8" height="4" fill="#7d6fb0"/><rect x="332" y="116" width="8" height="4" fill="#7d6fb0"/><rect x="320" y="120" width="4" height="4" fill="#7d6fb0"/><rect x="328" y="120" width="4" height="4" fill="#7d6fb0"/><rect x="336" y="120" width="4" height="4" fill="#7d6fb0"/><rect x="320" y="124" width="4" height="4" fill="#7d6fb0"/><rect x="336" y="124" width="4" height="4" fill="#7d6fb0"/><rect x="320" y="128" width="4" height="4" fill="#7d6fb0"/><rect x="336" y="128" width="4" height="4" fill="#7d6fb0"/><rect x="320" y="132" width="4" height="4" fill="#7d6fb0"/><rect x="336" y="132" width="4" height="4" fill="#7d6fb0"/><rect x="320" y="136" width="4" height="4" fill="#7d6fb0"/><rect x="336" y="136" width="4" height="4" fill="#7d6fb0"/><rect x="348" y="112" width="12" height="4" fill="#7d6fb0"/><rect x="352" y="116" width="4" height="4" fill="#7d6fb0"/><rect x="352" y="120" width="4" height="4" fill="#7d6fb0"/><rect x="352" y="124" width="4" height="4" fill="#7d6fb0"/><rect x="352" y="128" width="4" height="4" fill="#7d6fb0"/><rect x="352" y="132" width="4" height="4" fill="#7d6fb0"/><rect x="348" y="136" width="12" height="4" fill="#7d6fb0"/><rect x="368" y="112" width="20" height="4" fill="#7d6fb0"/><rect x="376" y="116" width="4" height="4" fill="#7d6fb0"/><rect x="376" y="120" width="4" height="4" fill="#7d6fb0"/><rect x="376" y="124" width="4" height="4" fill="#7d6fb0"/><rect x="376" y="128" width="4" height="4" fill="#7d6fb0"/><rect x="376" y="132" width="4" height="4" fill="#7d6fb0"/><rect x="376" y="136" width="4" height="4" fill="#7d6fb0"/><rect x="396" y="112" width="16" height="4" fill="#7d6fb0"/><rect x="392" y="116" width="4" height="4" fill="#7d6fb0"/><rect x="392" y="120" width="4" height="4" fill="#7d6fb0"/><rect x="396" y="124" width="12" height="4" fill="#7d6fb0"/><rect x="408" y="128" width="4" height="4" fill="#7d6fb0"/><rect x="408" y="132" width="4" height="4" fill="#7d6fb0"/><rect x="392" y="136" width="16" height="4" fill="#7d6fb0"/><rect x="440" y="32" width="4" height="104" fill="#332b5e"/><rect x="536" y="40" width="24" height="8" fill="#e8e0ff"/><rect x="528" y="48" width="8" height="8" fill="#e8e0ff"/><rect x="560" y="48" width="8" height="8" fill="#e8e0ff"/><rect x="528" y="56" width="8" height="8" fill="#e8e0ff"/><rect x="552" y="56" width="16" height="8" fill="#e8e0ff"/><rect x="528" y="64" width="8" height="8" fill="#e8e0ff"/><rect x="544" y="64" width="8" height="8" fill="#e8e0ff"/><rect x="560" y="64" width="8" height="8" fill="#e8e0ff"/><rect x="528" y="72" width="16" height="8" fill="#e8e0ff"/><rect x="560" y="72" width="8" height="8" fill="#e8e0ff"/><rect x="528" y="80" width="8" height="8" fill="#e8e0ff"/><rect x="560" y="80" width="8" height="8" fill="#e8e0ff"/><rect x="536" y="88" width="24" height="8" fill="#e8e0ff"/><rect x="496" y="112" width="16" height="4" fill="#7d6fb0"/><rect x="492" y="116" width="4" height="4" fill="#7d6fb0"/><rect x="492" y="120" width="4" height="4" fill="#7d6fb0"/><rect x="496" y="124" width="12" height="4" fill="#7d6fb0"/><rect x="508" y="128" width="4" height="4" fill="#7d6fb0"/><rect x="508" y="132" width="4" height="4" fill="#7d6fb0"/><rect x="492" y="136" width="16" height="4" fill="#7d6fb0"/><rect x="516" y="112" width="20" height="4" fill="#7d6fb0"/><rect x="524" y="116" width="4" height="4" fill="#7d6fb0"/><rect x="524" y="120" width="4" height="4" fill="#7d6fb0"/><rect x="524" y="124" width="4" height="4" fill="#7d6fb0"/><rect x="524" y="128" width="4" height="4" fill="#7d6fb0"/><rect x="524" y="132" width="4" height="4" fill="#7d6fb0"/><rect x="524" y="136" width="4" height="4" fill="#7d6fb0"/><rect x="544" y="112" width="12" height="4" fill="#7d6fb0"/><rect x="540" y="116" width="4" height="4" fill="#7d6fb0"/><rect x="556" y="116" width="4" height="4" fill="#7d6fb0"/><rect x="540" y="120" width="4" height="4" fill="#7d6fb0"/><rect x="556" y="120" width="4" height="4" fill="#7d6fb0"/><rect x="540" y="124" width="20" height="4" fill="#7d6fb0"/><rect x="540" y="128" width="4" height="4" fill="#7d6fb0"/><rect x="556" y="128" width="4" height="4" fill="#7d6fb0"/><rect x="540" y="132" width="4" height="4" fill="#7d6fb0"/><rect x="556" y="132" width="4" height="4" fill="#7d6fb0"/><rect x="540" y="136" width="4" height="4" fill="#7d6fb0"/><rect x="556" y="136" width="4" height="4" fill="#7d6fb0"/><rect x="564" y="112" width="16" height="4" fill="#7d6fb0"/><rect x="564" y="116" width="4" height="4" fill="#7d6fb0"/><rect x="580" y="116" width="4" height="4" fill="#7d6fb0"/><rect x="564" y="120" width="4" height="4" fill="#7d6fb0"/><rect x="580" y="120" width="4" height="4" fill="#7d6fb0"/><rect x="564" y="124" width="16" height="4" fill="#7d6fb0"/><rect x="564" y="128" width="4" height="4" fill="#7d6fb0"/><rect x="572" y="128" width="4" height="4" fill="#7d6fb0"/><rect x="564" y="132" width="4" height="4" fill="#7d6fb0"/><rect x="576" y="132" width="4" height="4" fill="#7d6fb0"/><rect x="564" y="136" width="4" height="4" fill="#7d6fb0"/><rect x="580" y="136" width="4" height="4" fill="#7d6fb0"/><rect x="592" y="112" width="16" height="4" fill="#7d6fb0"/><rect x="588" y="116" width="4" height="4" fill="#7d6fb0"/><rect x="588" y="120" width="4" height="4" fill="#7d6fb0"/><rect x="592" y="124" width="12" height="4" fill="#7d6fb0"/><rect x="604" y="128" width="4" height="4" fill="#7d6fb0"/><rect x="604" y="132" width="4" height="4" fill="#7d6fb0"/><rect x="588" y="136" width="16" height="4" fill="#7d6fb0"/><rect x="660" y="32" width="4" height="104" fill="#332b5e"/><rect x="732" y="40" width="24" height="8" fill="#e8e0ff"/><rect x="724" y="48" width="8" height="8" fill="#e8e0ff"/><rect x="756" y="48" width="8" height="8" fill="#e8e0ff"/><rect x="756" y="56" width="8" height="8" fill="#e8e0ff"/><rect x="748" y="64" width="8" height="8" fill="#e8e0ff"/><rect x="740" y="72" width="8" height="8" fill="#e8e0ff"/><rect x="732" y="80" width="8" height="8" fill="#e8e0ff"/><rect x="724" y="88" width="40" height="8" fill="#e8e0ff"/><rect x="788" y="40" width="8" height="8" fill="#e8e0ff"/><rect x="780" y="48" width="16" height="8" fill="#e8e0ff"/><rect x="788" y="56" width="8" height="8" fill="#e8e0ff"/><rect x="788" y="64" width="8" height="8" fill="#e8e0ff"/><rect x="788" y="72" width="8" height="8" fill="#e8e0ff"/><rect x="788" y="80" width="8" height="8" fill="#e8e0ff"/><rect x="780" y="88" width="24" height="8" fill="#e8e0ff"/><rect x="688" y="112" width="16" height="4" fill="#7d6fb0"/><rect x="688" y="116" width="4" height="4" fill="#7d6fb0"/><rect x="704" y="116" width="4" height="4" fill="#7d6fb0"/><rect x="688" y="120" width="4" height="4" fill="#7d6fb0"/><rect x="704" y="120" width="4" height="4" fill="#7d6fb0"/><rect x="688" y="124" width="4" height="4" fill="#7d6fb0"/><rect x="704" y="124" width="4" height="4" fill="#7d6fb0"/><rect x="688" y="128" width="4" height="4" fill="#7d6fb0"/><rect x="704" y="128" width="4" height="4" fill="#7d6fb0"/><rect x="688" y="132" width="4" height="4" fill="#7d6fb0"/><rect x="704" y="132" width="4" height="4" fill="#7d6fb0"/><rect x="688" y="136" width="16" height="4" fill="#7d6fb0"/><rect x="716" y="112" width="12" height="4" fill="#7d6fb0"/><rect x="712" y="116" width="4" height="4" fill="#7d6fb0"/><rect x="728" y="116" width="4" height="4" fill="#7d6fb0"/><rect x="712" y="120" width="4" height="4" fill="#7d6fb0"/><rect x="728" y="120" width="4" height="4" fill="#7d6fb0"/><rect x="712" y="124" width="20" height="4" fill="#7d6fb0"/><rect x="712" y="128" width="4" height="4" fill="#7d6fb0"/><rect x="728" y="128" width="4" height="4" fill="#7d6fb0"/><rect x="712" y="132" width="4" height="4" fill="#7d6fb0"/><rect x="728" y="132" width="4" height="4" fill="#7d6fb0"/><rect x="712" y="136" width="4" height="4" fill="#7d6fb0"/><rect x="728" y="136" width="4" height="4" fill="#7d6fb0"/><rect x="736" y="112" width="4" height="4" fill="#7d6fb0"/><rect x="752" y="112" width="4" height="4" fill="#7d6fb0"/><rect x="736" y="116" width="4" height="4" fill="#7d6fb0"/><rect x="752" y="116" width="4" height="4" fill="#7d6fb0"/><rect x="740" y="120" width="4" height="4" fill="#7d6fb0"/><rect x="748" y="120" width="4" height="4" fill="#7d6fb0"/><rect x="744" y="124" width="4" height="4" fill="#7d6fb0"/><rect x="744" y="128" width="4" height="4" fill="#7d6fb0"/><rect x="744" y="132" width="4" height="4" fill="#7d6fb0"/><rect x="744" y="136" width="4" height="4" fill="#7d6fb0"/><rect x="764" y="112" width="16" height="4" fill="#7d6fb0"/><rect x="760" y="116" width="4" height="4" fill="#7d6fb0"/><rect x="760" y="120" width="4" height="4" fill="#7d6fb0"/><rect x="764" y="124" width="12" height="4" fill="#7d6fb0"/><rect x="776" y="128" width="4" height="4" fill="#7d6fb0"/><rect x="776" y="132" width="4" height="4" fill="#7d6fb0"/><rect x="760" y="136" width="16" height="4" fill="#7d6fb0"/><rect x="812" y="112" width="12" height="4" fill="#7d6fb0"/><rect x="816" y="116" width="4" height="4" fill="#7d6fb0"/><rect x="816" y="120" width="4" height="4" fill="#7d6fb0"/><rect x="816" y="124" width="4" height="4" fill="#7d6fb0"/><rect x="816" y="128" width="4" height="4" fill="#7d6fb0"/><rect x="816" y="132" width="4" height="4" fill="#7d6fb0"/><rect x="812" y="136" width="12" height="4" fill="#7d6fb0"/><rect x="832" y="112" width="4" height="4" fill="#7d6fb0"/><rect x="848" y="112" width="4" height="4" fill="#7d6fb0"/><rect x="832" y="116" width="8" height="4" fill="#7d6fb0"/><rect x="848" y="116" width="4" height="4" fill="#7d6fb0"/><rect x="832" y="120" width="8" height="4" fill="#7d6fb0"/><rect x="848" y="120" width="4" height="4" fill="#7d6fb0"/><rect x="832" y="124" width="4" height="4" fill="#7d6fb0"/><rect x="840" y="124" width="4" height="4" fill="#7d6fb0"/><rect x="848" y="124" width="4" height="4" fill="#7d6fb0"/><rect x="832" y="128" width="4" height="4" fill="#7d6fb0"/><rect x="844" y="128" width="8" height="4" fill="#7d6fb0"/><rect x="832" y="132" width="4" height="4" fill="#7d6fb0"/><rect x="844" y="132" width="8" height="4" fill="#7d6fb0"/><rect x="832" y="136" width="4" height="4" fill="#7d6fb0"/><rect x="848" y="136" width="4" height="4" fill="#7d6fb0"/></svg>